<?xml version="1.0" encoding="UTF-8"?>
<svg version="1.1" xmlns="http://www.w3.org/2000/svg" width="251" height="65">
<path d="M0 0 C1.32 0 2.64 0 4 0 C4.33 1.65 4.66 3.3 5 5 C6.0828125 4.6596875 6.0828125 4.6596875 7.1875 4.3125 C10.7809319 3.91322979 12.18230651 4.82635074 15 7 C15 7.66 15 8.32 15 9 C15.66 9 16.32 9 17 9 C17.3403125 8.0409375 17.3403125 8.0409375 17.6875 7.0625 C19 5 19 5 21.125 4.1875 C24.88984917 3.94196636 28.26973333 4.43097627 32 5 C32 9.95 32 14.9 32 20 C20.50452646 20.37082173 20.50452646 20.37082173 18.11328125 18.61328125 C17 17 17 17 17 15 C16.34 15 15.68 15 15 15 C14.690625 15.639375 14.38125 16.27875 14.0625 16.9375 C13 19 13 19 12 20 C7.99779347 20.14355117 4.00558317 20.04216403 0 20 C0 13.4 0 6.8 0 0 Z M6 9 C4.70366379 10.06645115 4.70366379 10.06645115 4.9375 12.5625 C4.958125 13.366875 4.97875 14.17125 5 15 C8.04913228 16.01111093 8.04913228 16.01111093 11 15 C11 13.35 11 11.7 11 10 C9.34385343 9.61781233 7.67542976 9.28604898 6 9 Z M22 9 C20.70366379 10.06645115 20.70366379 10.06645115 20.9375 12.5625 C20.958125 13.366875 20.97875 14.17125 21 15 C23.475 15.495 23.475 15.495 26 16 C26.66 14.68 27.32 13.36 28 12 C27.34 11.01 26.68 10.02 26 9 C24.68 9 23.36 9 22 9 Z " fill="#FFFFFF" transform="translate(76,23)"/>
<path d="M0 0 C4.70588235 0.70588235 4.70588235 0.70588235 6 2 C6.10322198 3.40125337 6.1384943 4.8076127 6.14526367 6.21264648 C6.15164352 7.10704941 6.15802338 8.00145233 6.16459656 8.92295837 C6.16570938 9.89584305 6.1668222 10.86872772 6.16796875 11.87109375 C6.17129715 12.86375748 6.17462555 13.8564212 6.17805481 14.87916565 C6.1831284 16.9833225 6.185463 19.08748743 6.18530273 21.19165039 C6.1874883 24.42021883 6.20563699 27.64844527 6.22460938 30.87695312 C6.22754332 32.91666549 6.22952811 34.95637949 6.23046875 36.99609375 C6.23765427 37.96695419 6.24483978 38.93781464 6.25224304 39.93809509 C6.24916641 40.83565018 6.24608978 41.73320526 6.24291992 42.65795898 C6.24434494 43.44992172 6.24576996 44.24188446 6.24723816 45.05784607 C6 47 6 47 4 49 C1.375 48.625 1.375 48.625 -1 48 C-1.08152344 45.45767658 -1.14073716 42.91800798 -1.1875 40.375 C-1.21263672 39.66214844 -1.23777344 38.94929688 -1.26367188 38.21484375 C-1.33107709 33.31673145 -0.40937663 30.3661984 2 26 C1.76868654 22.06767118 1.2012803 20.30192045 -1 17 C-1.16856854 14.25147572 -1.2333134 11.61898141 -1.1875 8.875 C-1.18685547 8.13378906 -1.18621094 7.39257812 -1.18554688 6.62890625 C-1.14039459 1.14039459 -1.14039459 1.14039459 0 0 Z " fill="#FFFFFF" transform="translate(21,8)"/>
<path d="M0 0 C4.70588235 0.70588235 4.70588235 0.70588235 6 2 C6.15385787 4.45284945 6.23163294 6.85820214 6.25 9.3125 C6.270625 9.98990234 6.29125 10.66730469 6.3125 11.36523438 C6.34615067 15.66831328 5.79605439 17.77656943 3 21 C2.5 24.5 2.5 24.5 3 28 C3.49628906 28.57492188 3.99257813 29.14984375 4.50390625 29.7421875 C6.61738662 32.93172184 6.40089403 35.93366525 6.3125 39.625 C6.31572266 40.305625 6.31894531 40.98625 6.32226562 41.6875 C6.26742788 46.73257212 6.26742788 46.73257212 4 49 C1.375 48.625 1.375 48.625 -1 48 C-1.02526945 41.3247966 -1.04283268 34.64960543 -1.05493164 27.97436523 C-1.05997325 25.70157409 -1.06680637 23.4287862 -1.07543945 21.15600586 C-1.08751261 17.89696449 -1.09322987 14.63796583 -1.09765625 11.37890625 C-1.10281754 10.35599991 -1.10797882 9.33309357 -1.11329651 8.27919006 C-1.11337204 7.33829025 -1.11344757 6.39739044 -1.11352539 5.42797852 C-1.115746 4.59524918 -1.11796661 3.76251984 -1.12025452 2.90455627 C-1 1 -1 1 0 0 Z " fill="#FFFFFF" transform="translate(42,8)"/>
<path d="M0 0 C1.65 0 3.3 0 5 0 C5 1.32 5 2.64 5 4 C5.99 4 6.98 4 8 4 C8 5.32 8 6.64 8 8 C7.01 8 6.02 8 5 8 C5 10.31 5 12.62 5 15 C5.99 15 6.98 15 8 15 C8 14.34 8 13.68 8 13 C8.66 12.67 9.32 12.34 10 12 C9.67 11.67 9.34 11.34 9 11 C8.95919217 9.00041636 8.95745644 6.99954746 9 5 C15.21750806 2.68367347 15.21750806 2.68367347 18.9375 4.1875 C19.9584375 5.0846875 19.9584375 5.0846875 21 6 C21 6.99 21 7.98 21 9 C18.23723823 8.47731534 15.6739124 7.89130413 13 7 C13 7.66 13 8.32 13 9 C13.94875 9.12375 14.8975 9.2475 15.875 9.375 C19 10 19 10 21 12 C21.3125 14.5 21.3125 14.5 21 17 C17.53001271 19.31332486 16.07490752 19.33957563 12 19 C11.01 18.34 10.02 17.68 9 17 C8.67 17.66 8.34 18.32 8 19 C5.69 18.67 3.38 18.34 1 18 C0.86722656 17.32453125 0.73445312 16.6490625 0.59765625 15.953125 C0.42105469 15.06109375 0.24445313 14.1690625 0.0625 13.25 C-0.11152344 12.36828125 -0.28554687 11.4865625 -0.46484375 10.578125 C-0.92368488 8.36764947 -1.43336074 6.18487932 -2 4 C-1.34 4 -0.68 4 0 4 C0 2.68 0 1.36 0 0 Z M13 13 C13 13.66 13 14.32 13 15 C14.32 14.67 15.64 14.34 17 14 C15.68 13.67 14.36 13.34 13 13 Z " fill="#FFFFFF" transform="translate(200,24)"/>
<path d="M0 0 C2.73897267 2.99575136 3.0088886 4.49335007 2.9375 8.5625 C1.89167954 12.39717502 1.34238038 13.85744848 -2 16 C-6.9698922 16.7099846 -8.84919686 16.79117716 -13 13.9375 C-15.52975133 10.22192774 -15.7878128 8.4117517 -15 4 C-10.26001346 -1.89295624 -7.02132075 -2.75837601 0 0 Z " fill="#FF124D" transform="translate(19,25)"/>
<path d="M0 0 C1.60044197 2.27431228 1.98933912 3.91324765 2.1875 6.6875 C1.2285966 10.04366191 0.18398272 12.78972761 -2.8125 14.6875 C-7.73474114 15.32262789 -9.69637501 15.45483593 -13.8125 12.625 C-16.33180235 8.92477467 -16.5191341 7.0843344 -15.8125 2.6875 C-14.11757214 -0.09702435 -12.86454012 -1.78647994 -9.9375 -3.25 C-6.16682892 -3.36090209 -3.03818251 -2.2000632 0 0 Z " fill="#FF124D" transform="translate(61.8125,26.3125)"/>
<path d="M0 0 C1.65 0 3.3 0 5 0 C5 1.65 5 3.3 5 5 C6.0828125 4.6596875 6.0828125 4.6596875 7.1875 4.3125 C10.77631468 3.91374281 12.12806404 4.92582403 15 7 C16.8503199 8.8503199 16.29140132 11.42472082 16.42578125 13.89453125 C15.79533954 17.0120366 14.53257925 18.12664236 12 20 C7.93404512 20.52667809 4.11858117 20.17906875 0 20 C0 13.4 0 6.8 0 0 Z M6 9 C5.32041397 11.39719432 5.32041397 11.39719432 5 14 C5.66 14.66 6.32 15.32 7 16 C9.10820797 15.6814823 9.10820797 15.6814823 11 15 C12.01111093 11.95086772 12.01111093 11.95086772 11 9 C9.35 9 7.7 9 6 9 Z " fill="#FFFFFF" transform="translate(127,23)"/>
<path d="M0 0 C1.65 0 3.3 0 5 0 C5 1.65 5 3.3 5 5 C6.0828125 4.6596875 6.0828125 4.6596875 7.1875 4.3125 C10.77631468 3.91374281 12.12806404 4.92582403 15 7 C16.8503199 8.8503199 16.29140132 11.42472082 16.42578125 13.89453125 C15.79533954 17.0120366 14.53257925 18.12664236 12 20 C7.93404512 20.52667809 4.11858117 20.17906875 0 20 C0 13.4 0 6.8 0 0 Z M6 9 C4.70366379 10.06645115 4.70366379 10.06645115 4.9375 12.5625 C4.958125 13.366875 4.97875 14.17125 5 15 C7.475 15.495 7.475 15.495 10 16 C10.66 14.68 11.32 13.36 12 12 C11.34 11.01 10.68 10.02 10 9 C8.68 9 7.36 9 6 9 Z " fill="#FFFFFF" transform="translate(110,23)"/>
<path d="M0 0 C1.65 0 3.3 0 5 0 C5.33 1.65 5.66 3.3 6 5 C6.8353125 4.6596875 6.8353125 4.6596875 7.6875 4.3125 C10.93902162 3.87310519 12.38069157 5.15940489 15 7 C16.8503199 8.8503199 16.29140132 11.42472082 16.42578125 13.89453125 C15.79533954 17.0120366 14.53257925 18.12664236 12 20 C7.93404512 20.52667809 4.11858117 20.17906875 0 20 C0 13.4 0 6.8 0 0 Z M6 9 C5.32041397 11.39719432 5.32041397 11.39719432 5 14 C5.66 14.66 6.32 15.32 7 16 C9.10820797 15.6814823 9.10820797 15.6814823 11 15 C12.01111093 11.95086772 12.01111093 11.95086772 11 9 C9.35 9 7.7 9 6 9 Z " fill="#FFFFFF" transform="translate(166,23)"/>
<path d="M0 0 C1.65 0.33 3.3 0.66 5 1 C5 9.91 5 18.82 5 28 C3.35 28.33 1.7 28.66 0 29 C-2.64699616 26.35300384 -2.25749767 25.09605591 -2.265625 21.40625 C-2.26820312 20.29378906 -2.27078125 19.18132813 -2.2734375 18.03515625 C-2.26183594 16.28525391 -2.26183594 16.28525391 -2.25 14.5 C-2.25773437 13.33339844 -2.26546875 12.16679687 -2.2734375 10.96484375 C-2.27085938 9.85238281 -2.26828125 8.73992188 -2.265625 7.59375 C-2.26336914 6.56958984 -2.26111328 5.54542969 -2.25878906 4.49023438 C-2 2 -2 2 0 0 Z " fill="#FFFFFF" transform="translate(32,18)"/>
<path d="M0 0 C2.3821875 0.2784375 2.3821875 0.2784375 4.8125 0.5625 C4.8125 5.5125 4.8125 10.4625 4.8125 15.5625 C-6.52617735 16.05548597 -6.52617735 16.05548597 -9.55078125 13.80078125 C-12.20475436 10.17136217 -11.67830706 7.97976357 -11.1875 3.5625 C-8.34985008 -0.62641179 -4.66965929 -0.54580433 0 0 Z M-6.1875 4.5625 C-6.87909401 6.40975052 -6.87909401 6.40975052 -7.1875 8.5625 C-6.1975 10.0475 -6.1975 10.0475 -5.1875 11.5625 C-3.5375 11.2325 -1.8875 10.9025 -0.1875 10.5625 C-0.144779 8.89638095 -0.14686168 7.22867115 -0.1875 5.5625 C-1.25395115 4.26616379 -1.25395115 4.26616379 -3.75 4.5 C-4.554375 4.520625 -5.35875 4.54125 -6.1875 4.5625 Z " fill="#FFFFFF" transform="translate(239.1875,27.4375)"/>
<path d="M0 0 C2 2 2 2 2.375 5.875 C2.28707416 8.89745069 2.07715786 9.8812956 0.375 12.5 C-2.74008151 14.4674199 -4.37170989 14.5923739 -8 14 C-10.875 12.4375 -10.875 12.4375 -13 10 C-13.53613039 6.24708725 -13.52476893 3.99706096 -11.75 0.625 C-7.79638606 -3.04621294 -4.74405955 -1.95950286 0 0 Z M-6 2 C-6.66 2.66 -7.32 3.32 -8 4 C-6.35 4 -4.7 4 -3 4 C-3.33 3.34 -3.66 2.68 -4 2 C-4.66 2 -5.32 2 -6 2 Z M-8 8 C-7.67 8.66 -7.34 9.32 -7 10 C-5.68 9.67 -4.36 9.34 -3 9 C-3 8.67 -3 8.34 -3 8 C-4.65 8 -6.3 8 -8 8 Z " fill="#FFFFFF" transform="translate(163,29)"/>
<path d="M0 0 C2 2 2 2 2.375 5.875 C2.28294676 8.85319304 2.06485821 9.89622686 0.4375 12.5 C-2.94888329 14.58392818 -5.09385318 14.55802097 -9 14 C-11.4375 12.5 -11.4375 12.5 -13 10 C-13.62931082 6.44582412 -13.77244461 3.19728915 -11.75 0.0625 C-7.36405295 -2.60039643 -4.70861344 -1.94486207 0 0 Z M-6 2 C-7.64555699 3.22809091 -7.64555699 3.22809091 -9 5 C-8.77242269 7.16299211 -8.77242269 7.16299211 -8 9 C-6.10820797 9.6814823 -6.10820797 9.6814823 -4 10 C-3.34 9.34 -2.68 8.68 -2 8 C-2.32041397 5.39719432 -2.32041397 5.39719432 -3 3 C-3.99 2.67 -4.98 2.34 -6 2 Z " fill="#FFFFFF" transform="translate(196,29)"/>
<path d="M0 0 C1.65 0 3.3 0 5 0 C5 6.6 5 13.2 5 20 C3.35 20 1.7 20 0 20 C0 13.4 0 6.8 0 0 Z " fill="#FFFFFF" transform="translate(144,23)"/>
<path d="M0 0 C1.32 0 2.64 0 4 0 C4 4.95 4 9.9 4 15 C2.68 15 1.36 15 0 15 C0 10.05 0 5.1 0 0 Z " fill="#FFFFFF" transform="translate(246,28)"/>
<path d="M0 0 C1.65 0.33 3.3 0.66 5 1 C4.67 2.32 4.34 3.64 4 5 C2.35 4.67 0.7 4.34 -1 4 C-0.67 2.68 -0.34 1.36 0 0 Z " fill="#FFFFFF" transform="translate(246,22)"/>
<path d="M0 0 C1.32 0 2.64 0 4 0 C3.67 1.65 3.34 3.3 3 5 C1.68 4.67 0.36 4.34 -1 4 C-0.67 2.68 -0.34 1.36 0 0 Z " fill="#FFFFFF" transform="translate(223,38)"/>
</svg>
