<svg xmlns="http://www.w3.org/2000/svg" width="411.997" height="189.422" viewBox="0 0 411.997 189.422">
  <g id="Layer_1-2" transform="translate(-0.003 0.024)">
    <path id="Path_101414" data-name="Path 101414" d="M-.27,4.9.023,3.141H1.242q1.113,0,1.922-1.488L4.125-.105,1.371-12.375H3.434L4.922-5.25q.141.691.281,1.389t.258,1.389q.363-.691.727-1.389T6.926-5.25l3.809-7.125h2.215L4.816,2.3A5.385,5.385,0,0,1,3.111,4.2a3.82,3.82,0,0,1-2.162.7ZM17.929.281a4.623,4.623,0,0,1-3.592-1.43,5.308,5.308,0,0,1-1.307-3.727,8.754,8.754,0,0,1,.48-2.871,8.171,8.171,0,0,1,1.377-2.5,6.722,6.722,0,0,1,2.15-1.758,5.966,5.966,0,0,1,2.789-.65,4.585,4.585,0,0,1,3.586,1.441,5.4,5.4,0,0,1,1.3,3.762,8.737,8.737,0,0,1-.48,2.877,8.037,8.037,0,0,1-1.377,2.484A6.67,6.67,0,0,1,20.712-.357,6.02,6.02,0,0,1,17.929.281Zm.059-1.8a3.951,3.951,0,0,0,2.045-.521,4.69,4.69,0,0,0,1.488-1.395,6.559,6.559,0,0,0,.908-1.934,7.67,7.67,0,0,0,.3-2.127,3.671,3.671,0,0,0-.762-2.455,2.73,2.73,0,0,0-2.2-.9,3.886,3.886,0,0,0-2,.516,4.734,4.734,0,0,0-1.488,1.383,6.7,6.7,0,0,0-.932,1.939,7.554,7.554,0,0,0-.322,2.186,3.605,3.605,0,0,0,.756,2.42A2.745,2.745,0,0,0,17.988-1.523ZM31.381.234A4.323,4.323,0,0,1,29.19-.311a3.165,3.165,0,0,1-1.383-1.641,5.166,5.166,0,0,1-.164-2.736l1.277-7.687h1.992L29.659-4.828a3.054,3.054,0,0,0,.381,2.42,2.411,2.411,0,0,0,2.021.814,3.935,3.935,0,0,0,2.449-.832A4.059,4.059,0,0,0,35.9-5.133l1.2-7.242h1.992L37.042,0H35.1l.293-1.8A5.252,5.252,0,0,1,33.567-.264,4.889,4.889,0,0,1,31.381.234ZM40.966,0l2.051-12.375h1.9l-.328,1.945h.047a4.294,4.294,0,0,1,1.336-1.547,3.371,3.371,0,0,1,1.992-.586,4.728,4.728,0,0,1,.492.023q.223.023.34.047L48.466-10.5a4.145,4.145,0,0,0-.439-.088,4.74,4.74,0,0,0-.756-.053,2.937,2.937,0,0,0-1.91.727,3.615,3.615,0,0,0-1.137,2.3L42.959,0ZM55.379,0l9.34-17.461h2.391L70.59,0H68.433l-.891-4.9h-7.3L57.675,0Zm5.848-6.773h5.965l-.68-3.75q-.176-.926-.369-2.068t-.463-2.889q-.855,1.746-1.43,2.889t-1.055,2.068Zm17.3-10.687L75.628,0H73.518l2.895-17.461ZM92.735.234A4.36,4.36,0,0,1,90.544-.3,3.638,3.638,0,0,1,89.055-2h-.012l-.328,2H86.77l2.883-17.461h1.992L90.52-10.582h.012a4.267,4.267,0,0,1,1.828-1.553,5.58,5.58,0,0,1,2.25-.475,4.191,4.191,0,0,1,3.334,1.377,5.355,5.355,0,0,1,1.2,3.65,9.383,9.383,0,0,1-.439,2.836,8.5,8.5,0,0,1-1.271,2.52A6.4,6.4,0,0,1,95.419-.434,5.364,5.364,0,0,1,92.735.234Zm-.258-1.793a3.854,3.854,0,0,0,2-.516,4.661,4.661,0,0,0,1.471-1.377,6.461,6.461,0,0,0,.9-1.934,7.958,7.958,0,0,0,.3-2.186,3.4,3.4,0,0,0-.785-2.437,2.783,2.783,0,0,0-2.109-.82,3.906,3.906,0,0,0-2.021.521,4.865,4.865,0,0,0-1.5,1.383,6.467,6.467,0,0,0-.932,1.916A7.308,7.308,0,0,0,89.489-4.9a3.576,3.576,0,0,0,.785,2.449A2.783,2.783,0,0,0,92.477-1.559ZM105.8.234a4.323,4.323,0,0,1-2.191-.545,3.165,3.165,0,0,1-1.383-1.641,5.166,5.166,0,0,1-.164-2.736l1.277-7.687h1.992l-1.254,7.547a3.054,3.054,0,0,0,.381,2.42,2.411,2.411,0,0,0,2.021.814,3.935,3.935,0,0,0,2.449-.832,4.059,4.059,0,0,0,1.395-2.707l1.2-7.242h1.992L111.461,0h-1.945l.293-1.8a5.252,5.252,0,0,1-1.822,1.541A4.889,4.889,0,0,1,105.8.234Zm13.968.047a5.414,5.414,0,0,1-3.141-.855A2.969,2.969,0,0,1,115.386-3.2q0-.129.006-.252t.018-.252h1.969q-.141,2.273,2.379,2.273a4.44,4.44,0,0,0,1.594-.281,3.029,3.029,0,0,0,1.2-.8,1.749,1.749,0,0,0,.463-1.207,1.034,1.034,0,0,0-.416-.861,3.009,3.009,0,0,0-1.131-.5l-1.922-.469q-3-.738-3-3.023a3.5,3.5,0,0,1,.691-2.162,4.527,4.527,0,0,1,1.834-1.424,6.044,6.044,0,0,1,2.467-.5,4.607,4.607,0,0,1,2.953.9,3,3,0,0,1,1.137,2.484q0,.152-.012.293t-.035.3h-1.945a1.824,1.824,0,0,0-.445-1.67,2.293,2.293,0,0,0-1.687-.6,3.273,3.273,0,0,0-2.133.686,2.019,2.019,0,0,0-.844,1.6,1.066,1.066,0,0,0,.416.873,3.04,3.04,0,0,0,1.189.521l1.91.469q2.977.727,2.977,2.906a3.556,3.556,0,0,1-.732,2.268,4.6,4.6,0,0,1-1.928,1.418A6.807,6.807,0,0,1,119.768.281ZM127.748,0,129.8-12.375h1.992L129.74,0Zm3.445-14.789a1.093,1.093,0,0,1-.891-.4,1.177,1.177,0,0,1-.246-.961,1.585,1.585,0,0,1,.557-.961,1.535,1.535,0,0,1,1.025-.4,1.11,1.11,0,0,1,.9.4,1.135,1.135,0,0,1,.24.961,1.522,1.522,0,0,1-.551.961A1.557,1.557,0,0,1,131.193-14.789Zm5.647,7.617L135.657,0h-1.992L135.7-12.375h1.945l-.281,1.723a5.038,5.038,0,0,1,1.775-1.488,4.806,4.806,0,0,1,2.1-.469,4.381,4.381,0,0,1,2.244.563,3.339,3.339,0,0,1,1.424,1.67,5.014,5.014,0,0,1,.176,2.76L143.837,0h-1.992L143.1-7.617A3.026,3.026,0,0,0,142.765-10a2.315,2.315,0,0,0-1.951-.779,4.073,4.073,0,0,0-2.531.867A4.107,4.107,0,0,0,136.841-7.172ZM152.918.281a4.93,4.93,0,0,1-3.5-1.26A5.271,5.271,0,0,1,148.066-5a8.534,8.534,0,0,1,.9-4.025,6.743,6.743,0,0,1,2.455-2.672,6.563,6.563,0,0,1,3.51-.955,4.824,4.824,0,0,1,3.047.9,3.048,3.048,0,0,1,1.16,2.555A3.167,3.167,0,0,1,156.9-6.1a19.958,19.958,0,0,1-6.861.955v.258a5.264,5.264,0,0,0,.252,1.641,2.463,2.463,0,0,0,.908,1.254,3.067,3.067,0,0,0,1.84.48,4.274,4.274,0,0,0,2.326-.609,3.58,3.58,0,0,0,1.4-1.57h1.992A6.026,6.026,0,0,1,156.6-.82,6.078,6.078,0,0,1,152.918.281Zm-2.684-7.113a27.563,27.563,0,0,0,4.184-.281,4.6,4.6,0,0,0,2.109-.768,1.615,1.615,0,0,0,.609-1.295,1.44,1.44,0,0,0-.609-1.23,3.02,3.02,0,0,0-1.793-.445,4.263,4.263,0,0,0-2.2.539,4.24,4.24,0,0,0-1.477,1.453A6.739,6.739,0,0,0,150.234-6.832ZM165.749.281a5.414,5.414,0,0,1-3.141-.855A2.969,2.969,0,0,1,161.366-3.2q0-.129.006-.252t.018-.252h1.969q-.141,2.273,2.379,2.273a4.44,4.44,0,0,0,1.594-.281,3.029,3.029,0,0,0,1.2-.8A1.749,1.749,0,0,0,169-3.715a1.034,1.034,0,0,0-.416-.861,3.009,3.009,0,0,0-1.131-.5l-1.922-.469q-3-.738-3-3.023a3.5,3.5,0,0,1,.691-2.162,4.527,4.527,0,0,1,1.834-1.424,6.044,6.044,0,0,1,2.467-.5,4.607,4.607,0,0,1,2.953.9,3,3,0,0,1,1.137,2.484q0,.152-.012.293t-.035.3h-1.945a1.824,1.824,0,0,0-.445-1.67,2.293,2.293,0,0,0-1.687-.6,3.273,3.273,0,0,0-2.133.686,2.019,2.019,0,0,0-.844,1.6,1.066,1.066,0,0,0,.416.873,3.04,3.04,0,0,0,1.189.521l1.91.469Q171-6.07,171-3.891a3.556,3.556,0,0,1-.732,2.268,4.6,4.6,0,0,1-1.928,1.418A6.807,6.807,0,0,1,165.749.281Zm12.362,0a5.414,5.414,0,0,1-3.141-.855A2.969,2.969,0,0,1,173.729-3.2q0-.129.006-.252t.018-.252h1.969Q175.58-1.43,178.1-1.43a4.44,4.44,0,0,0,1.594-.281,3.029,3.029,0,0,0,1.2-.8,1.749,1.749,0,0,0,.463-1.207,1.034,1.034,0,0,0-.416-.861,3.009,3.009,0,0,0-1.131-.5l-1.922-.469q-3-.738-3-3.023a3.5,3.5,0,0,1,.691-2.162,4.527,4.527,0,0,1,1.834-1.424,6.044,6.044,0,0,1,2.467-.5,4.607,4.607,0,0,1,2.953.9,3,3,0,0,1,1.137,2.484q0,.152-.012.293t-.035.3h-1.945a1.824,1.824,0,0,0-.445-1.67,2.293,2.293,0,0,0-1.687-.6,3.273,3.273,0,0,0-2.133.686,2.019,2.019,0,0,0-.844,1.6,1.066,1.066,0,0,0,.416.873,3.04,3.04,0,0,0,1.189.521l1.91.469q2.977.727,2.977,2.906a3.556,3.556,0,0,1-.732,2.268A4.6,4.6,0,0,1,180.7-.205,6.807,6.807,0,0,1,178.111.281ZM197.738.234a4.325,4.325,0,0,1-2.684-.814,4.246,4.246,0,0,1-1.506-2.262,7.552,7.552,0,0,1-.123-3.346,9.017,9.017,0,0,1,1.225-3.357,6.767,6.767,0,0,1,2.256-2.256,5.634,5.634,0,0,1,2.953-.809,4.623,4.623,0,0,1,2.18.51,2.939,2.939,0,0,1,1.395,1.553h.023l.3-1.828h1.945L203.656,0h-1.945l.3-1.875h-.023a5.457,5.457,0,0,1-1.945,1.588A5.332,5.332,0,0,1,197.738.234Zm.6-1.793a3.954,3.954,0,0,0,2.947-1.266,6.1,6.1,0,0,0,1.564-3.363,4.724,4.724,0,0,0-.451-3.369,2.769,2.769,0,0,0-2.525-1.271,3.952,3.952,0,0,0-2.83,1.184,6.019,6.019,0,0,0-1.6,3.457,4.667,4.667,0,0,0,.463,3.451A2.78,2.78,0,0,0,198.336-1.559ZM211.964.281a5.414,5.414,0,0,1-3.141-.855A2.969,2.969,0,0,1,207.581-3.2q0-.129.006-.252T207.6-3.7h1.969q-.141,2.273,2.379,2.273a4.44,4.44,0,0,0,1.594-.281,3.029,3.029,0,0,0,1.2-.8,1.749,1.749,0,0,0,.463-1.207,1.034,1.034,0,0,0-.416-.861,3.009,3.009,0,0,0-1.131-.5l-1.922-.469q-3-.738-3-3.023a3.5,3.5,0,0,1,.691-2.162,4.527,4.527,0,0,1,1.834-1.424,6.044,6.044,0,0,1,2.467-.5,4.607,4.607,0,0,1,2.953.9,3,3,0,0,1,1.137,2.484q0,.152-.012.293t-.035.3h-1.945a1.824,1.824,0,0,0-.445-1.67,2.293,2.293,0,0,0-1.687-.6,3.273,3.273,0,0,0-2.133.686,2.019,2.019,0,0,0-.844,1.6,1.066,1.066,0,0,0,.416.873,3.04,3.04,0,0,0,1.189.521l1.91.469q2.977.727,2.977,2.906a3.556,3.556,0,0,1-.732,2.268,4.6,4.6,0,0,1-1.928,1.418A6.807,6.807,0,0,1,211.964.281Zm12.362,0a5.414,5.414,0,0,1-3.141-.855A2.969,2.969,0,0,1,219.944-3.2q0-.129.006-.252t.018-.252h1.969Q221.8-1.43,224.315-1.43a4.44,4.44,0,0,0,1.594-.281,3.029,3.029,0,0,0,1.2-.8,1.749,1.749,0,0,0,.463-1.207,1.034,1.034,0,0,0-.416-.861,3.009,3.009,0,0,0-1.131-.5L224.1-5.543q-3-.738-3-3.023a3.5,3.5,0,0,1,.691-2.162,4.527,4.527,0,0,1,1.834-1.424,6.044,6.044,0,0,1,2.467-.5,4.607,4.607,0,0,1,2.953.9,3,3,0,0,1,1.137,2.484q0,.152-.012.293t-.035.3h-1.945a1.824,1.824,0,0,0-.445-1.67,2.293,2.293,0,0,0-1.687-.6,3.273,3.273,0,0,0-2.133.686,2.019,2.019,0,0,0-.844,1.6,1.066,1.066,0,0,0,.416.873,3.04,3.04,0,0,0,1.189.521l1.91.469q2.977.727,2.977,2.906a3.556,3.556,0,0,1-.732,2.268,4.6,4.6,0,0,1-1.928,1.418A6.807,6.807,0,0,1,224.326.281ZM232.306,0l2.051-12.375h1.992L234.3,0Zm3.445-14.789a1.093,1.093,0,0,1-.891-.4,1.177,1.177,0,0,1-.246-.961,1.585,1.585,0,0,1,.557-.961,1.535,1.535,0,0,1,1.025-.4,1.11,1.11,0,0,1,.9.4,1.135,1.135,0,0,1,.24.961,1.522,1.522,0,0,1-.551.961A1.557,1.557,0,0,1,235.751-14.789ZM242.606.281a5.414,5.414,0,0,1-3.141-.855A2.969,2.969,0,0,1,238.223-3.2q0-.129.006-.252t.018-.252h1.969q-.141,2.273,2.379,2.273a4.44,4.44,0,0,0,1.594-.281,3.029,3.029,0,0,0,1.2-.8,1.749,1.749,0,0,0,.463-1.207,1.034,1.034,0,0,0-.416-.861,3.009,3.009,0,0,0-1.131-.5l-1.922-.469q-3-.738-3-3.023a3.5,3.5,0,0,1,.691-2.162,4.527,4.527,0,0,1,1.834-1.424,6.044,6.044,0,0,1,2.467-.5,4.607,4.607,0,0,1,2.953.9,3,3,0,0,1,1.137,2.484q0,.152-.012.293t-.035.3h-1.945a1.824,1.824,0,0,0-.445-1.67,2.293,2.293,0,0,0-1.687-.6,3.273,3.273,0,0,0-2.133.686,2.019,2.019,0,0,0-.844,1.6,1.066,1.066,0,0,0,.416.873,3.04,3.04,0,0,0,1.189.521l1.91.469q2.977.727,2.977,2.906a3.556,3.556,0,0,1-.732,2.268A4.6,4.6,0,0,1,245.2-.205,6.807,6.807,0,0,1,242.606.281Zm15.9-12.656-.281,1.711h-2.508L254.446-3a1.223,1.223,0,0,0,.135,1,1.341,1.341,0,0,0,1.014.287h1.148L256.462,0h-1.336q-3.164,0-2.707-2.789l1.3-7.875h-2.2l.281-1.711H254l.563-3.375h1.992l-.562,3.375ZM263.7.234a4.325,4.325,0,0,1-2.684-.814,4.246,4.246,0,0,1-1.506-2.262,7.552,7.552,0,0,1-.123-3.346,9.017,9.017,0,0,1,1.225-3.357,6.767,6.767,0,0,1,2.256-2.256,5.634,5.634,0,0,1,2.953-.809,4.623,4.623,0,0,1,2.18.51,2.939,2.939,0,0,1,1.395,1.553h.023l.3-1.828h1.945L269.616,0H267.67l.3-1.875h-.023a5.457,5.457,0,0,1-1.945,1.588A5.332,5.332,0,0,1,263.7.234Zm.6-1.793a3.954,3.954,0,0,0,2.947-1.266,6.1,6.1,0,0,0,1.564-3.363,4.724,4.724,0,0,0-.451-3.369,2.769,2.769,0,0,0-2.525-1.271A3.952,3.952,0,0,0,263-9.645a6.019,6.019,0,0,0-1.6,3.457,4.667,4.667,0,0,0,.463,3.451A2.78,2.78,0,0,0,264.3-1.559Zm12.421-5.613L275.533,0H273.54l2.039-12.375h1.945l-.281,1.723a5.038,5.038,0,0,1,1.775-1.488,4.806,4.806,0,0,1,2.1-.469,4.381,4.381,0,0,1,2.244.563,3.339,3.339,0,0,1,1.424,1.67,5.014,5.014,0,0,1,.176,2.76L283.712,0H281.72l1.254-7.617A3.026,3.026,0,0,0,282.64-10a2.315,2.315,0,0,0-1.951-.779,4.073,4.073,0,0,0-2.531.867A4.107,4.107,0,0,0,276.716-7.172Zm18.351-5.2-.281,1.711h-2.508L291.012-3a1.223,1.223,0,0,0,.135,1,1.341,1.341,0,0,0,1.014.287h1.148L293.028,0h-1.336q-3.164,0-2.707-2.789l1.3-7.875h-2.2l.281-1.711h2.2l.563-3.375h1.992l-.562,3.375Z" transform="translate(115.64 184.5)" fill="#666"/>
    <path id="Path_101407" data-name="Path 101407" d="M136.73,75.81H115.86v62.02h13.07V115.99h9.53c11.69,0,23.2-4.59,23.2-20.09,0-16.8-13.42-20.09-24.94-20.09Zm-1.03,31.17h-6.75V84.81h6.84c6.15,0,12.47,1.56,12.47,11,0,8.92-5.45,11.17-12.55,11.17Z" fill="#226cf4"/>
    <path id="Path_101408" data-name="Path 101408" d="M206.08,102.83c0-7.97-7.1-11.78-16.28-11.78-14.11,0-24.59,9.44-24.59,24.94s10.63,22.23,23.27,22.23a37.964,37.964,0,0,0,16.82-3.77V122.63a22.206,22.206,0,0,1-14.2,5.21c-6.1.15-13.28-2.76-14.41-9.34,14.11-.17,29.39-4.85,29.39-15.67Zm-29.65,9.35c.52-8.83,6.96-12.8,12.93-12.8,2.42,0,5.63.69,5.63,4.59C194.99,109.94,185.09,111.75,176.43,112.18Z" fill="#226cf4"/>
    <path id="Path_101409" data-name="Path 101409" d="M238.89,91.05c-7.53,0-13.33,3.98-16.45,11.26l-.78-11.36H209.71v47.06h12.9V118.59c0-10.04,4.51-18.27,11-18.27,4.51,0,5.54,4.24,5.54,11.52v26.17h12.9V107.77c0-11.6-4.15-16.71-13.16-16.71Z" fill="#226cf4"/>
    <rect id="Rectangle_8177" data-name="Rectangle 8177" width="12.9" height="47.16" transform="translate(352.82 90.74)" fill="#226cf4"/>
    <path id="Path_101410" data-name="Path 101410" d="M358.78,71.57a7.7,7.7,0,1,0,0,15.41h0a7.7,7.7,0,1,0,0-15.41Z" fill="#226cf4"/>
    <path id="Path_101411" data-name="Path 101411" d="M398.84,90.95c-7.53,0-13.33,3.98-16.45,11.26l-.78-11.36-11.95-.1v47.16h12.9V118.49c0-10.04,4.51-18.27,11-18.27,4.51,0,5.54,4.24,5.54,11.52v26.17H412V107.67c0-11.6-4.15-16.71-13.16-16.71Z" fill="#226cf4"/>
    <path id="Path_101412" data-name="Path 101412" d="M336,110.26c0,10.04-3.9,18.27-9.87,18.27-4.85,0-5.89-3.64-5.89-11.52V90.84h-12.9v30.24c0,11.52,4.16,16.71,13.51,16.71h0c6.84,0,12.55-3.98,15.32-10.91l.87,11.02H348.9V90.84H336v19.42Z" fill="#226cf4"/>
    <path id="Path_101413" data-name="Path 101413" d="M291.03,90.89,290.31,99c-3.19-4.55-7.06-7.45-11.9-8.11-5.76-.8-12.1,2.07-15.48,5.5a21.854,21.854,0,0,0-6.77,16.45c0,6.85,1.33,12.24,4.84,16.45,4.84,5.81,10.08,6.66,16.45,5.81,3.6-.48,8.71-2.9,12.95-10.88v11.01a7.664,7.664,0,0,1-2.84,6.17,11.162,11.162,0,0,1-7.43,2.39,11.025,11.025,0,0,1-5.95-1.58,6.1,6.1,0,0,1-2.97-4.28l-12.07,1.89a15.568,15.568,0,0,0,7.07,10.36,24.367,24.367,0,0,0,13.92,3.96q10.455,0,16.85-5.63a18.694,18.694,0,0,0,6.4-14.73V90.91l-12.34-.02Zm-1.47,26.23c-2.54,7.24-9.36,11.44-15.22,9.38s-8.56-9.6-6.02-16.84,9.36-11.44,15.22-9.38,8.56,9.6,6.02,16.84Z" fill="#226cf4"/>
    <path id="Path_134" d="M115.87,61.28h25.18c15.11,0,21.45-7.47,21.45-16.76,0-8.68-5.64-13.29-12.33-15.28,6.95-1.91,10.07-6.77,10.07-13.81C160.24,4.66,152.6.49,140.7.49H115.87V61.27Zm13.11-8.25V34.19h7.64c6.86,0,12.42,2,12.42,9.73s-5.3,9.12-9.99,9.12H128.98Zm0-26.83V8.75h7.56c6.69,0,10.59,2.52,10.59,8.68,0,6.69-4.6,8.77-10.59,8.77Zm60.16,35.09c13.98,0,23.01-8.42,23.01-23.36s-8.51-23.62-22.84-23.62-23.1,8.94-23.1,23.7c0,14.85,9.03,23.27,22.92,23.27h0Zm.08-7.64c-6.25,0-9.73-4.86-9.73-15.89s3.3-15.8,9.73-15.8,9.73,5.3,9.73,15.8c0,10.86-3.3,15.89-9.73,15.89Zm42.69,7.63a28.979,28.979,0,0,0,10.42-1.88V47.88a9.514,9.514,0,0,1-6.17,2.27c-4.34,0-5.64-1.55-5.64-7.72V24.46h11.2V15.6h-11.2V4.32H217.58V15.61H212.2v8.86h5.38V43.23c0,13.8,4.78,18.06,14.33,18.06h0Z"/>
    <g id="Layer_1-2-2" data-name="Layer_1-2">
      <path id="Path_64" d="M22.15,131.88c-7.5,5.07-24.92,7.97-21.77,3.61,4.48-3.75,17.85-11.8,20.84-23.69,5.77-22.95,10.52-41.31,20.84-55.69.5-.8.42-1.36-.86-1.28-4.17.18-18.79,5.97-26.81,7.48-2.19.42-3.9.5-4.74.09-4.72-4.32,31.83-23.75,47.8-26.24a15.643,15.643,0,0,0,6.62-2.45c3.76-2.47,6.79-7.15,8.12-12.61h0c1.14-6.64,3.25-10.87,9.61-12.18,2.44-.58,4.67-.58,7.06-1.47,4.52-1.87,12.49-5.73,15.77-7.34a1.068,1.068,0,0,1,.82-.09.708.708,0,0,1,.5.63V.69c-.16.77-.86,1.01-1.45,1.6-2.53,2.13-6.71,5.62-8.64,11.21-.79,2.31-1.06,4.6-2.18,6.77-2.04,4.74-6.06,6.06-7,9.13a8.506,8.506,0,0,0,.22,3.32,123.057,123.057,0,0,1,1.64,19.35c.45,23.9-19.75,58.57-42.61,76.05-7.87,6.02-25.08,12.11-24.63,8.53.05-.4.47-.84,1.16-1.81,1.97-2.58,5.46-7.23,4.74-6.51a27.108,27.108,0,0,1-5.03,3.54h0Z" fill="#226cf4"/>
    </g>
  </g>
</svg>
