<svg width="120" height="12" viewBox="0 0 120 12" fill="none" xmlns="http://www.w3.org/2000/svg">
<g clip-path="url(#clip0_1856_26842)">
<path d="M60.1374 11.5894V9.19399H70.1748V7.16443H62.3363L59.6396 5.18591V2.38843L62.3363 0.409912H71.9458V2.80525H62.1584V4.76909H69.9968L72.6927 6.7469V9.61153L69.9968 11.5894H60.1374Z" fill="#222222"/>
<path d="M27.4607 11.5894L22.5358 3.46966L17.6027 11.5894H14.6943L21.483 0.409912H23.5804L30.3691 11.5894H27.4607Z" fill="#222222"/>
<path d="M35.0879 11.5894V2.80525H29.8203V0.409912H42.8733V2.80525H37.6059V11.5894H35.0879Z" fill="#222222"/>
<path d="M80.4707 11.5894V2.80525H75.2026V0.409912H88.2565V2.80525H82.9892V11.5894H80.4707Z" fill="#222222"/>
<path d="M0 11.5894V0.409912H10.3572L13.0538 2.38843V9.61153L10.3572 11.59L0 11.5894ZM10.5351 9.19399V2.80525H2.51798V9.19399H10.5351Z" fill="#222222"/>
<path d="M104.798 11.5894L108.192 5.99997L104.798 0.409912H107.706L111.102 5.99997L107.706 11.5894H104.798Z" fill="#222222"/>
<path d="M116.991 11.5894L113.594 5.99997L116.991 0.409912H119.899L116.504 5.99997L119.899 11.5894H116.991Z" fill="#222222"/>
<path d="M55.0915 11.5894L50.1585 3.46966L45.2328 11.5894H42.3245L49.113 0.409912H51.2105L57.9991 11.5894H55.0915Z" fill="#222222"/>
<path d="M100.474 11.5894L95.5415 3.46966L90.6163 11.5894H87.708L94.4966 0.409912H96.594L103.383 11.5894H100.474Z" fill="#222222"/>
</g>
<defs>
<clipPath id="clip0_1856_26842">
<rect width="120" height="12" fill="white"/>
</clipPath>
</defs>
</svg>
