<svg width="740" height="121" viewBox="0 0 740 121" fill="none" xmlns="http://www.w3.org/2000/svg">
<path d="M48.44 120.8C39.2 120.8 30.92 118.7 23.6 114.5C16.4 110.18 10.7 104.36 6.5 97.04C2.3 89.6 0.200001 81.14 0.200001 71.66C0.200001 62.18 2.3 53.78 6.5 46.46C10.7 39.02 16.4 33.2 23.6 29C30.92 24.68 39.2 22.52 48.44 22.52C57.56 22.52 65.72 24.68 72.92 29C80.24 33.2 86 39.02 90.2 46.46C94.4 53.78 96.5 62.18 96.5 71.66C96.5 81.14 94.4 89.6 90.2 97.04C86 104.36 80.24 110.18 72.92 114.5C65.72 118.7 57.56 120.8 48.44 120.8ZM48.44 103.88C54.08 103.88 59.12 102.5 63.56 99.74C68 96.86 71.48 93.02 74 88.22C76.52 83.3 77.72 77.78 77.6 71.66C77.72 65.42 76.52 59.9 74 55.1C71.48 50.18 68 46.34 63.56 43.58C59.12 40.82 54.08 39.44 48.44 39.44C42.8 39.44 37.7 40.88 33.14 43.76C28.7 46.52 25.22 50.36 22.7 55.28C20.18 60.08 18.98 65.54 19.1 71.66C18.98 77.78 20.18 83.3 22.7 88.22C25.22 93.02 28.7 96.86 33.14 99.74C37.7 102.5 42.8 103.88 48.44 103.88ZM156.842 120.8C148.082 120.8 140.222 118.64 133.262 114.32C126.422 110 120.962 104.12 116.882 96.68C112.922 89.24 110.942 80.9 110.942 71.66C110.942 62.42 112.922 54.08 116.882 46.64C120.962 39.2 126.422 33.32 133.262 29C140.222 24.68 148.082 22.52 156.842 22.52C165.242 22.52 172.862 24.26 179.702 27.74C186.662 31.1 191.942 35.72 195.542 41.6L185.282 54.2C183.362 51.44 180.902 48.92 177.902 46.64C174.902 44.36 171.722 42.56 168.362 41.24C165.002 39.92 161.762 39.26 158.642 39.26C152.882 39.26 147.722 40.7 143.162 43.58C138.722 46.34 135.182 50.18 132.542 55.1C129.902 60.02 128.582 65.54 128.582 71.66C128.582 77.78 129.962 83.3 132.722 88.22C135.482 93.02 139.142 96.86 143.702 99.74C148.262 102.62 153.302 104.06 158.822 104.06C162.062 104.06 165.182 103.52 168.182 102.44C171.302 101.36 174.302 99.74 177.182 97.58C180.062 95.42 182.762 92.78 185.282 89.66L195.542 102.26C191.702 107.66 186.182 112.1 178.982 115.58C171.902 119.06 164.522 120.8 156.842 120.8ZM224.73 119V0.379993H243.27V119H224.73ZM205.11 42.5V24.5H265.23V42.5H205.11ZM323.713 120.8C314.473 120.8 306.193 118.7 298.873 114.5C291.673 110.18 285.973 104.36 281.773 97.04C277.573 89.6 275.473 81.14 275.473 71.66C275.473 62.18 277.573 53.78 281.773 46.46C285.973 39.02 291.673 33.2 298.873 29C306.193 24.68 314.473 22.52 323.713 22.52C332.833 22.52 340.993 24.68 348.193 29C355.513 33.2 361.273 39.02 365.473 46.46C369.673 53.78 371.773 62.18 371.773 71.66C371.773 81.14 369.673 89.6 365.473 97.04C361.273 104.36 355.513 110.18 348.193 114.5C340.993 118.7 332.833 120.8 323.713 120.8ZM323.713 103.88C329.353 103.88 334.393 102.5 338.833 99.74C343.273 96.86 346.753 93.02 349.273 88.22C351.793 83.3 352.993 77.78 352.873 71.66C352.993 65.42 351.793 59.9 349.273 55.1C346.753 50.18 343.273 46.34 338.833 43.58C334.393 40.82 329.353 39.44 323.713 39.44C318.073 39.44 312.973 40.88 308.413 43.76C303.973 46.52 300.493 50.36 297.973 55.28C295.453 60.08 294.253 65.54 294.373 71.66C294.253 77.78 295.453 83.3 297.973 88.22C300.493 93.02 303.973 96.86 308.413 99.74C312.973 102.5 318.073 103.88 323.713 103.88ZM432.116 120.8C423.356 120.8 415.496 118.64 408.536 114.32C401.696 110 396.236 104.12 392.156 96.68C388.196 89.24 386.216 80.9 386.216 71.66C386.216 62.42 388.196 54.08 392.156 46.64C396.236 39.2 401.696 33.32 408.536 29C415.496 24.68 423.356 22.52 432.116 22.52C440.516 22.52 448.136 24.26 454.976 27.74C461.936 31.1 467.216 35.72 470.816 41.6L460.556 54.2C458.636 51.44 456.176 48.92 453.176 46.64C450.176 44.36 446.996 42.56 443.636 41.24C440.276 39.92 437.036 39.26 433.916 39.26C428.156 39.26 422.996 40.7 418.436 43.58C413.996 46.34 410.456 50.18 407.816 55.1C405.176 60.02 403.856 65.54 403.856 71.66C403.856 77.78 405.236 83.3 407.996 88.22C410.756 93.02 414.416 96.86 418.976 99.74C423.536 102.62 428.576 104.06 434.096 104.06C437.336 104.06 440.456 103.52 443.456 102.44C446.576 101.36 449.576 99.74 452.456 97.58C455.336 95.42 458.036 92.78 460.556 89.66L470.816 102.26C466.976 107.66 461.456 112.1 454.256 115.58C447.176 119.06 439.796 120.8 432.116 120.8ZM530.784 120.8C521.544 120.8 513.264 118.7 505.944 114.5C498.744 110.18 493.044 104.36 488.844 97.04C484.644 89.6 482.544 81.14 482.544 71.66C482.544 62.18 484.644 53.78 488.844 46.46C493.044 39.02 498.744 33.2 505.944 29C513.264 24.68 521.544 22.52 530.784 22.52C539.904 22.52 548.064 24.68 555.264 29C562.584 33.2 568.344 39.02 572.544 46.46C576.744 53.78 578.844 62.18 578.844 71.66C578.844 81.14 576.744 89.6 572.544 97.04C568.344 104.36 562.584 110.18 555.264 114.5C548.064 118.7 539.904 120.8 530.784 120.8ZM530.784 103.88C536.424 103.88 541.464 102.5 545.904 99.74C550.344 96.86 553.824 93.02 556.344 88.22C558.864 83.3 560.064 77.78 559.944 71.66C560.064 65.42 558.864 59.9 556.344 55.1C553.824 50.18 550.344 46.34 545.904 43.58C541.464 40.82 536.424 39.44 530.784 39.44C525.144 39.44 520.044 40.88 515.484 43.76C511.044 46.52 507.564 50.36 505.044 55.28C502.524 60.08 501.324 65.54 501.444 71.66C501.324 77.78 502.524 83.3 505.044 88.22C507.564 93.02 511.044 96.86 515.484 99.74C520.044 102.5 525.144 103.88 530.784 103.88ZM598.686 119V24.5H617.406V44.66L613.986 46.82C614.946 43.7 616.446 40.7 618.486 37.82C620.646 34.94 623.226 32.42 626.226 30.26C629.346 27.98 632.646 26.18 636.126 24.86C639.726 23.54 643.386 22.88 647.106 22.88C652.506 22.88 657.246 23.78 661.326 25.58C665.406 27.38 668.766 30.08 671.406 33.68C674.046 37.28 675.966 41.78 677.166 47.18L674.286 46.46L675.546 43.4C676.866 40.64 678.666 38.06 680.946 35.66C683.346 33.14 686.046 30.92 689.046 29C692.046 27.08 695.226 25.58 698.586 24.5C701.946 23.42 705.246 22.88 708.486 22.88C715.566 22.88 721.386 24.32 725.946 27.2C730.626 30.08 734.106 34.46 736.386 40.34C738.786 46.22 739.986 53.54 739.986 62.3V119H721.266V63.38C721.266 57.98 720.546 53.6 719.106 50.24C717.786 46.76 715.746 44.18 712.986 42.5C710.226 40.82 706.686 39.98 702.366 39.98C699.006 39.98 695.826 40.58 692.826 41.78C689.946 42.86 687.426 44.42 685.266 46.46C683.106 48.5 681.426 50.9 680.226 53.66C679.026 56.3 678.426 59.24 678.426 62.48V119H659.706V63.02C659.706 58.1 658.986 53.96 657.546 50.6C656.106 47.12 654.006 44.48 651.246 42.68C648.486 40.88 645.126 39.98 641.166 39.98C637.806 39.98 634.686 40.58 631.806 41.78C628.926 42.86 626.406 44.42 624.246 46.46C622.086 48.38 620.406 50.72 619.206 53.48C618.006 56.12 617.406 59 617.406 62.12V119H598.686Z" fill="white"/>
</svg>
