<?xml version="1.0" encoding="UTF-8"?>
<svg xmlns="http://www.w3.org/2000/svg" xmlns:xlink="http://www.w3.org/1999/xlink" height="38.269" viewBox="0 0 162.561 38.269" width="162.561">
  <clipPath id="a">
    <path d="m0 0h162.561v38.269h-162.561z"></path>
  </clipPath>
  <g clip-path="url(#a)" fill="#f2f2f2">
    <path d="m24.269 3.594c-2.643-2.214-6.364-3.334-11.069-3.334h-13.2v37.84h2.239v-12.569h10.961c4.706 0 8.426-1.12 11.07-3.334a11.539 11.539 0 0 0 4.007-9.327 11.481 11.481 0 0 0 -4.007-9.277m1.818 9.277a9.641 9.641 0 0 1 -3.288 7.83c-2.2 1.827-5.388 2.761-9.487 2.761h-11.074v-21.13h11.07c4.1 0 7.29.934 9.487 2.761a9.582 9.582 0 0 1 3.291 7.778" transform="translate(0 -.041)"></path>
    <path d="m118.689 24.7a12.209 12.209 0 0 0 6.474-4.192 12.178 12.178 0 0 0 2.365-7.635 11.5 11.5 0 0 0 -4-9.277c-2.65-2.216-6.371-3.336-11.068-3.336h-13.2v37.84h2.24v-12.569h10.96a24.715 24.715 0 0 0 3.965-.295l9.234 12.864h2.66zm6.659-11.827a9.667 9.667 0 0 1 -3.291 7.829c-2.2 1.827-5.388 2.761-9.487 2.761h-11.07v-21.132h11.07c4.1 0 7.29.934 9.487 2.761a9.608 9.608 0 0 1 3.291 7.778" transform="translate(-15.702 -.041)"></path>
    <path d="m183.224 9.352a18.253 18.253 0 0 0 -7.024-6.869 21.294 21.294 0 0 0 -19.959 0 18.361 18.361 0 0 0 -7 6.869 19.238 19.238 0 0 0 -2.542 9.782 19.238 19.238 0 0 0 2.542 9.782 18.3 18.3 0 0 0 7 6.869 21.294 21.294 0 0 0 19.959 0 18.309 18.309 0 0 0 7.029-6.869 19.238 19.238 0 0 0 2.542-9.782 19.238 19.238 0 0 0 -2.542-9.782m-17.029 26.837a17.642 17.642 0 0 1 -8.8-2.214 16.425 16.425 0 0 1 -6.2-6.128 17.1 17.1 0 0 1 -2.273-8.713 17.1 17.1 0 0 1 2.273-8.713 16.343 16.343 0 0 1 6.2-6.12 18.572 18.572 0 0 1 17.619 0 16.292 16.292 0 0 1 6.229 6.12 17.1 17.1 0 0 1 2.273 8.713 17.1 17.1 0 0 1 -2.273 8.713 16.373 16.373 0 0 1 -6.229 6.128 17.806 17.806 0 0 1 -8.822 2.214" transform="translate(-23.205)"></path>
    <path d="m64.443 3.036a3.036 3.036 0 1 1 -3.036-3.036 3.036 3.036 0 0 1 3.036 3.036" transform="translate(-9.234)"></path>
    <path d="m60.18 10.94a2.44 2.44 0 1 1 -2.44-2.44 2.44 2.44 0 0 1 2.44 2.44" transform="translate(-8.748 -1.345)"></path>
    <path d="m55.965 19.3a2.3 2.3 0 1 1 -2.3-2.3 2.3 2.3 0 0 1 2.3 2.3" transform="translate(-8.125 -2.689)"></path>
    <path d="m51.415 27.5a2 2 0 1 1 -2-2 2 2 0 0 1 2 2" transform="translate(-7.501 -4.034)"></path>
    <path d="m46.487 35.5a1.506 1.506 0 1 1 -1.506-1.5 1.506 1.506 0 0 1 1.506 1.5" transform="translate(-6.877 -5.378)"></path>
    <path d="m55.317 32.667a1.506 1.506 0 1 1 -1.506-1.506 1.506 1.506 0 0 1 1.506 1.506" transform="translate(-8.274 -4.929)"></path>
    <path d="m42.025 43.745a1.247 1.247 0 1 1 -1.246-1.245 1.247 1.247 0 0 1 1.247 1.247" transform="translate(-6.254 -6.723)"></path>
    <path d="m62.9 10.924a2.425 2.425 0 1 0 2.419-2.424 2.424 2.424 0 0 0 -2.419 2.424" transform="translate(-9.95 -1.345)"></path>
    <path d="m67.126 19.3a2.3 2.3 0 1 0 2.3-2.3 2.3 2.3 0 0 0 -2.3 2.3" transform="translate(-10.619 -2.689)"></path>
    <path d="m71.79 27.5a2 2 0 1 0 2-2 2 2 0 0 0 -2 2" transform="translate(-11.357 -4.034)"></path>
    <path d="m63.546 26.52a1.749 1.749 0 1 0 1.754-1.749 1.749 1.749 0 0 0 -1.749 1.749" transform="translate(-10.053 -3.919)"></path>
    <path d="m59.276 18.842a2.275 2.275 0 1 0 2.275-2.275 2.275 2.275 0 0 0 -2.275 2.275" transform="translate(-9.377 -2.621)"></path>
    <path d="m56.254 26.52a1.749 1.749 0 1 0 1.746-1.749 1.749 1.749 0 0 0 -1.749 1.749" transform="translate(-8.899 -3.919)"></path>
    <path d="m76.9 35.5a1.506 1.506 0 1 0 1.509-1.5 1.506 1.506 0 0 0 -1.509 1.5" transform="translate(-12.166 -5.378)"></path>
    <path d="m68.073 32.667a1.506 1.506 0 1 0 1.506-1.506 1.506 1.506 0 0 0 -1.506 1.506" transform="translate(-10.769 -4.929)"></path>
    <path d="m60.618 31.633a1.145 1.145 0 1 0 1.145-1.145 1.145 1.145 0 0 0 -1.145 1.145" transform="translate(-9.589 -4.823)"></path>
    <path d="m81.462 43.745a1.247 1.247 0 1 0 1.247-1.245 1.247 1.247 0 0 0 -1.247 1.247" transform="translate(-12.887 -6.723)"></path>
  </g>
</svg>
