<svg width="66" height="28" viewBox="0 0 66 28" fill="none" xmlns="http://www.w3.org/2000/svg">
<path fill-rule="evenodd" clip-rule="evenodd" d="M51.4867 10.8323C51.3948 11.3373 51.2497 11.9205 51.055 12.5631C50.8594 13.2058 50.6086 13.8838 50.3129 14.5711C49.9914 15.264 49.658 15.9123 49.3236 16.4963C48.993 17.0748 48.6623 17.5724 48.3454 17.9751C48.0359 18.3676 47.7484 18.6578 47.493 18.8382C47.3002 18.974 47.1927 18.9889 47.156 18.9889C47.1387 18.9889 47.1247 18.9861 47.11 18.9794C47.0777 18.9646 46.9704 18.892 46.9236 18.5469C46.8795 18.2307 46.9035 17.8149 46.9925 17.3118C47.0843 16.7938 47.2285 16.205 47.4242 15.5661C47.617 14.9271 47.8678 14.2491 48.1681 13.5525C48.4658 12.8615 48.7909 12.217 49.1363 11.6357C49.4798 11.0553 49.8141 10.5633 50.131 10.1727C50.4387 9.79139 50.7262 9.50586 50.9852 9.32264C51.179 9.18685 51.2855 9.17198 51.3223 9.17198C51.3409 9.17198 51.3546 9.17477 51.3673 9.18147C51.3996 9.19553 51.5069 9.26889 51.5546 9.61394C51.5978 9.93016 51.5748 10.3394 51.4867 10.8323ZM38.5927 10.8323C38.5009 11.3373 38.3557 11.9205 38.161 12.5631C37.9645 13.2095 37.7137 13.8866 37.4189 14.5711C37.0965 15.2659 36.7631 15.9141 36.4296 16.4963C36.0981 17.0757 35.7683 17.5733 35.4514 17.9751C35.1419 18.3676 34.8553 18.6578 34.5981 18.8382C34.4053 18.974 34.2987 18.9889 34.262 18.9889C34.2447 18.9889 34.2307 18.9861 34.216 18.9797C34.1837 18.9649 34.0764 18.8923 34.0296 18.5472C33.9855 18.232 34.0085 17.8171 34.0985 17.3121C34.1894 16.795 34.3345 16.2082 34.5302 15.5664C34.7231 14.9265 34.9738 14.2495 35.2741 13.5529C35.5727 12.86 35.8987 12.2154 36.2413 11.636C36.5867 11.0547 36.921 10.5627 37.237 10.173C37.5456 9.79172 37.834 9.50527 38.0912 9.32298C38.2841 9.18719 38.3915 9.17232 38.4283 9.17232C38.4469 9.17232 38.4606 9.1751 38.4733 9.18147C38.5056 9.19553 38.6138 9.26889 38.6607 9.61394C38.7038 9.93016 38.6808 10.3394 38.5927 10.8323ZM24.6223 10.7021C24.5653 11.2155 24.4551 11.8014 24.2944 12.445C24.1327 13.0868 23.9123 13.762 23.6376 14.4539C23.3639 15.1422 23.0727 15.7895 22.7706 16.3773C22.4748 16.9521 22.1763 17.4422 21.8814 17.8347C21.5949 18.216 21.3258 18.5006 21.0805 18.6801C20.8996 18.8131 20.7985 18.828 20.7645 18.828C20.7489 18.828 20.735 18.8252 20.7204 18.8185C20.6875 18.8037 20.5735 18.7283 20.5147 18.3777C20.4596 18.0568 20.455 17.6429 20.4991 17.1463C20.545 16.6422 20.6488 16.0628 20.8086 15.4247C20.9684 14.7858 21.1898 14.1096 21.4653 13.4158C21.7427 12.7183 22.0348 12.0719 22.3333 11.4916C22.6272 10.9177 22.9267 10.422 23.2233 10.0174C23.5081 9.62679 23.7781 9.33848 24.0224 9.15898C24.2034 9.02597 24.3044 9.01109 24.3393 9.01109C24.3549 9.01109 24.3688 9.01388 24.3816 9.02058C24.4165 9.03534 24.5349 9.11359 24.6075 9.46886C24.6718 9.78508 24.6772 10.1989 24.6223 10.7021ZM52.8718 6.43689C53.5469 6.43689 54.1274 6.64615 54.5977 7.06002C55.0514 7.45902 55.3757 8.02914 55.5603 8.75365C55.7394 9.45584 55.7762 10.305 55.6705 11.2787C55.5648 12.2404 55.2875 13.3379 54.8438 14.5404C54.4259 15.677 53.9465 16.6768 53.4211 17.511C53.1667 17.9165 52.9049 18.296 52.6394 18.6466C52.6054 18.6913 52.6562 18.7499 52.7046 18.7229C52.859 18.6382 53.0123 18.5462 53.1639 18.4457C53.5092 18.2197 53.8408 17.976 54.1559 17.7184C55.0349 16.9976 55.6732 16.0229 55.9837 14.9273C56.1693 14.2679 56.375 13.6141 56.5991 12.9696C56.9665 11.9084 57.3587 10.9179 57.7656 10.025C58.1697 9.13497 58.5059 8.46905 58.7649 8.04402C59.0589 7.56039 59.4703 7.25906 59.9911 7.14745C60.4779 7.04329 60.9436 7.05071 61.3716 7.16783C61.8098 7.28875 62.168 7.50824 62.4353 7.82259C62.7264 8.16577 62.7898 8.5564 62.6171 8.9526C62.5657 9.08931 62.4307 9.40181 62.2158 9.88265C61.9999 10.3663 61.7574 10.9308 61.4754 11.6116C61.2045 12.2654 60.9262 12.9732 60.6488 13.7135C60.3778 14.4408 60.1657 15.1198 60.0187 15.7318C59.8754 16.327 59.8194 16.8218 59.8515 17.2022C59.8828 17.5658 60.0196 17.5658 60.094 17.5658C60.1987 17.5658 60.3843 17.5156 60.6727 17.2775C60.9501 17.045 61.2431 16.765 61.5453 16.4414C61.8475 16.1168 62.1377 15.7671 62.4059 15.4025C62.6511 15.0705 62.8615 14.7766 63.0323 14.5283C63.1811 14.3116 63.4181 14.1879 63.6817 14.1879C63.96 14.1879 64.23 14.3292 64.3706 14.5478C64.5074 14.7617 64.5038 15.0165 64.3586 15.2453C64.1767 15.5327 63.8589 16.0145 63.3868 16.7204C62.9193 17.4179 62.3599 18.1369 61.7243 18.8586C61.0777 19.5905 60.3714 20.2406 59.6228 20.7903C58.8356 21.3697 58.0402 21.6627 57.2604 21.6627C56.555 21.6627 56.0287 21.4153 55.6953 20.9261C55.3922 20.4797 55.2379 19.8807 55.2379 19.146V19.0288C55.2398 18.9414 55.1387 18.8921 55.0717 18.9469C54.9238 19.0669 54.7713 19.186 54.6161 19.3032C53.6993 19.9942 52.6412 20.5801 51.4692 21.0461C50.423 21.4627 49.2703 21.6739 48.0432 21.6739L47.7933 21.6711L47.5426 21.6626C46.7067 21.6608 46.0867 21.3957 45.6982 20.8721C45.6294 20.78 45.5659 20.6851 45.5099 20.5875C45.4649 20.5093 45.3483 20.5224 45.3226 20.6096C45.1967 21.0347 45.0773 21.4448 44.9671 21.8373C44.7283 22.6808 44.5244 23.4109 44.3453 24.0694C44.1652 24.7297 44.0091 25.3315 43.8805 25.8607C43.7565 26.3704 43.6702 26.7833 43.6261 27.0893L43.6233 27.1006C43.5103 27.68 43.1236 27.8837 42.8178 27.9535C42.6818 27.9841 42.5404 28 42.3971 28C42.1381 28 41.8643 27.9488 41.5842 27.8493C41.158 27.6968 40.775 27.4336 40.4444 27.0662C40.1017 26.6849 39.9282 26.2078 39.9282 25.6479C39.9282 25.5344 39.9566 25.2861 40.1762 24.3719C40.3406 23.6976 40.5619 22.8587 40.8366 21.8775C41.0221 21.2125 41.2334 20.4889 41.4676 19.7151C41.495 19.6221 41.3904 19.5449 41.3114 19.5998C40.4949 20.1625 39.5791 20.6489 38.5798 21.046C37.5327 21.4627 36.3809 21.6738 35.1538 21.6738C34.9884 21.6738 34.8194 21.6699 34.6523 21.6625C33.8174 21.6607 33.1974 21.3956 32.8079 20.872C32.739 20.7799 32.6766 20.686 32.6206 20.5874C32.5747 20.5093 32.4589 20.5232 32.4332 20.6095C32.3064 21.0355 32.187 21.4466 32.0768 21.8372C31.8371 22.6836 31.6332 23.4146 31.4559 24.0693C31.2759 24.7297 31.1188 25.3314 30.9902 25.8606C30.8662 26.3712 30.7808 26.7842 30.7358 27.0892L30.734 27.1005C30.621 27.68 30.2334 27.8836 29.9275 27.9534C29.7916 27.984 29.651 27.9999 29.5078 27.9999C29.2488 27.9999 28.975 27.9487 28.694 27.8492C28.2678 27.6967 27.8857 27.4335 27.555 27.0661C27.2124 26.6848 27.0388 26.2077 27.0388 25.6478C27.0388 25.5334 27.0663 25.2851 27.2868 24.3718C27.4522 23.691 27.6735 22.8521 27.9463 21.8774C28.108 21.2979 28.2871 20.6804 28.4882 20.0135C28.5177 19.9131 28.3964 19.8368 28.3192 19.9084C27.9766 20.2247 27.6239 20.5195 27.262 20.7892C26.4859 21.3686 25.696 21.6625 24.9153 21.6625C24.2098 21.6625 23.6826 21.4151 23.3501 20.9259C23.2161 20.7286 23.1114 20.5008 23.0351 20.245C22.9681 20.0172 22.6797 19.9474 22.5162 20.1194C22.2865 20.3612 22.034 20.5817 21.763 20.7761C21.4103 21.029 21.0163 21.2411 20.5901 21.4066C20.151 21.5759 19.6762 21.6624 19.1783 21.6624C18.5051 21.6624 17.9145 21.455 17.424 21.0448C16.9464 20.6486 16.5928 20.0869 16.3714 19.3735C16.1565 18.6825 16.0775 17.8334 16.1363 16.8484C16.195 15.8756 16.4136 14.7837 16.7866 13.6016C17.5811 11.15 18.6171 9.32991 19.8672 8.18874C21.1403 7.02617 22.4317 6.43652 23.7057 6.43652C24.2448 6.43652 24.7013 6.54626 25.0605 6.76202C25.4141 6.97592 25.6869 7.25867 25.8715 7.60279C25.9946 7.83437 26.0846 8.08269 26.1397 8.34683C26.1496 8.39334 26.2123 8.40262 26.2352 8.3609C26.2995 8.2437 26.3611 8.13864 26.4189 8.04281C26.7129 7.56104 27.1188 7.25971 27.6268 7.14717C28.1016 7.04302 28.5664 7.04952 29.0064 7.16686C29.4573 7.28778 29.822 7.50818 30.0902 7.82254C30.3814 8.16573 30.4447 8.55635 30.2711 8.95256C30.2206 9.0874 30.0902 9.39246 29.8707 9.88259C29.6567 10.3625 29.4068 10.9438 29.1303 11.6116C28.8566 12.2728 28.5783 12.9806 28.3037 13.7135C28.0318 14.4408 27.8196 15.1206 27.6736 15.7317C27.5303 16.3279 27.4743 16.8226 27.5065 17.2021C27.5377 17.5658 27.6746 17.5658 27.7481 17.5658C27.8537 17.5658 28.0392 17.5155 28.3267 17.2774C28.4856 17.1444 28.651 16.9947 28.82 16.8301C29.4748 16.1912 29.9139 15.4936 30.2069 14.6259C30.5963 13.4745 31.006 12.3379 31.4267 11.2423C31.8758 10.077 32.3139 9.03068 32.7291 8.13225C32.9459 7.66722 33.2894 7.3538 33.7468 7.20313C34.1757 7.06175 34.6157 7.03201 35.0483 7.11479C35.48 7.19848 35.8584 7.37242 36.1726 7.63283C36.3122 7.74816 36.4233 7.87277 36.506 8.00392C36.5279 8.03925 36.5537 8.04297 36.584 8.01412C36.9551 7.66721 37.3648 7.34914 37.8066 7.06547C38.4532 6.64788 39.1852 6.43676 39.9825 6.43676C40.6567 6.43676 41.2381 6.64602 41.7075 7.05989C42.1621 7.45981 42.4863 8.029 42.671 8.75352C42.8501 9.45478 42.8868 10.3048 42.7812 11.2786C42.6755 12.2394 42.3972 13.3377 41.9545 14.5403C41.5357 15.6778 41.0562 16.6776 40.5308 17.5109C40.2764 17.9164 40.0146 18.2958 39.7492 18.6465C39.7152 18.6911 39.7665 18.7497 39.8153 18.7228C39.9687 18.6381 40.1221 18.5461 40.2746 18.4456C40.5217 18.2838 40.7614 18.1126 40.9929 17.9341C41.8728 17.257 42.5295 16.3306 42.8795 15.276L43.0172 14.864C43.4306 13.627 43.8678 12.4086 44.316 11.2423C44.7661 10.0751 45.2042 9.02881 45.6194 8.13224C45.8352 7.66721 46.1778 7.35472 46.6371 7.20312C47.066 7.06174 47.506 7.032 47.9386 7.11478C48.3703 7.19848 48.7478 7.37241 49.0619 7.63189C49.2015 7.74814 49.3126 7.87279 49.3953 8.00391C49.4175 8.03924 49.4431 8.04297 49.4734 8.01412C49.8445 7.66721 50.2541 7.34913 50.6959 7.06546C51.3434 6.64783 52.0755 6.43689 52.8718 6.43689ZM10.6262 0.643597C11.5943 0.643597 12.5642 0.757067 13.5103 0.97933C14.4628 1.20441 15.3271 1.54666 16.0775 1.99681C16.8371 2.45253 17.4608 3.02451 17.931 3.69694C18.4105 4.38146 18.653 5.18409 18.653 6.08252C18.653 7.04978 18.4399 7.95751 18.0192 8.77967C17.6022 9.59347 17.0281 10.3366 16.3145 10.9885C15.6072 11.6359 14.7686 12.2069 13.8216 12.685C13.0409 13.0793 12.2115 13.416 11.3499 13.6866C11.2948 13.7042 11.2756 13.7331 11.2783 13.7889C11.2967 14.2167 11.327 14.6399 11.3702 15.0473C11.4188 15.5151 11.4831 15.9708 11.5621 16.4033C11.6393 16.8283 11.733 17.2422 11.8386 17.6338C11.9213 17.9369 12.0131 18.2318 12.1114 18.5117C12.1738 18.6903 12.24 18.8651 12.307 19.0288C12.4421 19.359 12.5909 19.6752 12.7488 19.9682C12.9041 20.2565 13.0721 20.5299 13.2485 20.781C13.4203 21.0257 13.6049 21.2554 13.7969 21.4656C13.9843 21.6702 14.1826 21.858 14.3865 22.0255C14.5849 22.1882 14.7944 22.3361 15.0084 22.4626C15.2169 22.5872 15.4355 22.6951 15.6587 22.7844C15.8782 22.8718 16.1051 22.9425 16.3338 22.9937C16.5634 23.0448 16.7994 23.0773 17.0383 23.0932C17.2762 23.1079 17.5241 23.1051 17.7712 23.083C18.0229 23.0608 18.2801 23.0197 18.5354 22.9593C18.7972 22.8979 19.0636 22.817 19.329 22.7175C19.6009 22.6152 19.8755 22.4905 20.1465 22.3501C20.2503 22.2961 20.355 22.2385 20.4588 22.179C20.7968 21.9837 21.2285 22.0767 21.4554 22.3929C21.6832 22.7091 21.6326 23.1462 21.3387 23.4029C21.1945 23.5285 21.0494 23.6512 20.9061 23.7684C20.558 24.053 20.2089 24.3171 19.8682 24.5524C19.5449 24.7756 19.216 24.984 18.8909 25.1691C18.7283 25.2621 18.5575 25.3532 18.3839 25.4406C18.0505 25.6099 17.7134 25.7587 17.38 25.8834C17.0484 26.007 16.715 26.1103 16.3898 26.1884C16.0656 26.2665 15.7386 26.3232 15.4199 26.3558C15.1921 26.379 14.9643 26.3911 14.742 26.3911C14.652 26.3911 14.562 26.3893 14.472 26.3847C14.1633 26.3715 13.8566 26.3354 13.559 26.2768C13.412 26.248 13.2632 26.2126 13.1181 26.1717C12.9776 26.1336 12.8334 26.088 12.6891 26.035C12.4127 25.9346 12.138 25.8109 11.8753 25.6668C11.6182 25.5254 11.3647 25.3627 11.124 25.1823C10.9293 25.0362 10.7382 24.8753 10.5573 24.7051C10.3396 24.5005 10.1274 24.2727 9.92628 24.0308C9.72789 23.7918 9.53776 23.5333 9.3614 23.2626C9.18415 22.9929 9.01696 22.7046 8.86265 22.407C8.70925 22.1094 8.56324 21.7931 8.43096 21.4676C8.2996 21.1449 8.17743 20.8026 8.06631 20.4483C7.957 20.1004 7.85691 19.7321 7.7687 19.3527C7.68143 18.9742 7.60519 18.5817 7.54184 18.1855C7.48491 17.8348 7.43714 17.4712 7.39947 17.102C7.38836 16.9904 7.22954 16.9755 7.1974 17.0844C7.05961 17.5661 6.93471 18.033 6.82448 18.4795C6.6858 19.0394 6.55811 19.549 6.44238 20.0066C6.32942 20.4549 6.24951 20.8157 6.20358 21.079C6.11172 21.5458 5.80586 21.8407 5.31538 21.9365C4.89379 22.0202 4.44097 21.9848 3.97437 21.8342C3.51328 21.6844 3.09444 21.425 2.72796 21.0613C2.34402 20.68 2.1493 20.201 2.1493 19.6365C2.1493 19.177 2.26504 18.4507 2.50201 17.4174C2.73345 16.4083 3.06689 15.2122 3.49491 13.8608C3.91926 12.5206 4.43454 11.0428 5.02514 9.47099C5.53215 8.12056 6.10162 6.76083 6.71886 5.41969C6.92093 4.98071 7.33885 4.67844 7.82106 4.62264C8.91133 4.49616 9.85738 4.52776 10.6592 4.71565C11.1424 4.82912 11.4014 5.35273 11.1993 5.80381C10.6822 6.95521 10.2055 8.10383 9.77931 9.22175C9.43487 10.1267 9.10421 11.0223 8.79192 11.8938C8.76171 11.9803 8.84979 12.0603 8.93245 12.0221C9.34853 11.8315 9.7591 11.6064 10.1605 11.3497C10.8181 10.9284 11.417 10.4252 11.9415 9.8551C12.4632 9.28498 12.8912 8.64232 13.2136 7.94385C13.5314 7.25189 13.6931 6.50041 13.6931 5.708C13.6931 4.6896 13.4102 3.93719 12.8526 3.47309C12.2877 3.00341 11.4923 2.76439 10.4875 2.76439C9.41742 2.76439 8.43921 3.01737 7.58041 3.5168C6.69865 4.02833 5.93629 4.65704 5.31446 5.3862C4.68804 6.12095 4.19389 6.90591 3.84761 7.71971C3.5041 8.52606 3.32957 9.2329 3.32957 9.82162C3.32957 10.2429 3.10639 10.5471 2.70132 10.6782C2.34586 10.7935 1.95366 10.7768 1.55135 10.6271C1.16466 10.4838 0.806446 10.2002 0.485887 9.78536C0.163487 9.36869 0 8.80415 0 8.10754C0 7.49929 0.231447 6.78315 0.707247 5.9182C1.17017 5.07465 1.85538 4.25341 2.74173 3.47682C3.62717 2.70208 4.74407 2.02965 6.06488 1.47907C7.39304 0.924753 8.92785 0.643597 10.6262 0.643597ZM63.318 0C64.7995 0 66 1.19977 66 2.67855C66 4.15733 64.7995 5.3571 63.318 5.3571C61.8364 5.3571 60.6359 4.15733 60.6359 2.67855C60.6359 1.19977 61.8364 0 63.318 0Z" fill="#222222"/>
</svg>
