<svg width="126" height="22" viewBox="0 0 126 22" fill="none" xmlns="http://www.w3.org/2000/svg">
<g clip-path="url(#clip0_1856_26862)">
<path d="M0.105225 1.76242C0.105225 1.22539 0.540576 0.790039 1.07761 0.790039H19.9419C20.2641 0.790039 20.5253 1.05125 20.5253 1.37347V20.2377C20.5253 20.7747 20.0899 21.2101 19.5529 21.2101C8.81225 21.2101 0.105225 12.5031 0.105225 1.76242Z" fill="#222222"/>
<path d="M27.7364 10.061C27.5834 10.0429 27.6408 9.88054 27.6982 9.73619C27.8512 9.30317 27.8894 8.99643 27.8894 8.65362V8.07776C27.8894 7.99721 27.824 7.93191 27.7435 7.93191H26.5055C26.425 7.93191 26.3596 7.99721 26.3596 8.07776V17.0241C26.3596 17.1046 26.425 17.1699 26.5055 17.1699H27.7435C27.824 17.1699 27.8894 17.1046 27.8894 17.0241V12.4607C27.8894 10.0878 28.6814 9.12266 31.4041 9.2582C31.4881 9.26239 31.5608 9.19588 31.5608 9.11169V7.93342C31.5608 7.85287 31.4941 7.78748 31.4136 7.78834C29.0732 7.81344 28.5645 8.44932 27.9276 9.91662C27.8894 9.98881 27.8512 10.079 27.7364 10.061Z" fill="#222222"/>
<path d="M36.4608 17.272C38.2408 17.272 39.5566 16.045 39.8856 15.1248C39.9049 15.0707 39.9824 14.9625 40.0985 14.9986C40.2532 15.0527 40.1565 15.2151 40.0985 15.3594C39.9436 15.7383 39.9049 16.0271 39.9049 16.3517V16.9818C39.9049 17.0624 39.9702 17.1277 40.0508 17.1277H41.307C41.3875 17.1277 41.4529 17.0624 41.4529 16.9818V8.03551C41.4529 7.95495 41.3875 7.88965 41.307 7.88965H40.0508C39.9702 7.88965 39.9049 7.95495 39.9049 8.03551V12.4906C39.9049 14.6918 38.2602 16.045 36.7509 16.045C35.3772 16.045 34.3323 15.4496 34.3323 13.3025V8.03551C34.3323 7.95495 34.2669 7.88965 34.1864 7.88965H32.9303C32.8496 7.88965 32.7844 7.95495 32.7844 8.03551V13.3747C32.7844 16.0812 34.1775 17.272 36.4608 17.272Z" fill="#222222"/>
<path d="M50.6582 4.72803C50.5777 4.72803 50.5123 4.79333 50.5123 4.87388V8.49435C50.5123 8.82351 50.5511 9.13437 50.6863 9.5001C50.7444 9.66467 50.8603 9.82925 50.6863 9.88409C50.5704 9.92068 50.4931 9.75611 50.4737 9.70125C50.0291 8.43949 48.7336 7.61661 47.1483 7.61661C44.5768 7.61661 42.7788 9.66467 42.7788 12.4442C42.7788 15.2237 44.5768 17.2718 47.1483 17.2718C48.6949 17.2718 50.0097 16.4672 50.4737 15.1505C50.4931 15.0957 50.5704 14.9494 50.7057 15.0043C50.8217 15.0591 50.7636 15.2054 50.7057 15.3518C50.5511 15.754 50.5123 16.0101 50.5123 16.3209V16.9796C50.5123 17.0601 50.5777 17.1255 50.6582 17.1255H51.9133C51.9938 17.1255 52.0591 17.0601 52.0591 16.9796V4.87388C52.0591 4.79333 51.9938 4.72803 51.9133 4.72803H50.6582ZM47.3803 15.9553C45.3695 15.9553 44.3256 14.346 44.3256 12.4442C44.3256 10.5424 45.3695 8.93322 47.3803 8.93322C49.2171 8.93322 50.5123 10.5424 50.5123 12.4442C50.5123 14.346 49.2171 15.9553 47.3803 15.9553Z" fill="#222222"/>
<path d="M61.0942 4.72803C61.0137 4.72803 60.9484 4.79333 60.9484 4.87388V8.49435C60.9484 8.82351 60.9863 9.13437 61.1186 9.5001C61.1753 9.66467 61.2888 9.82925 61.1186 9.88409C61.0052 9.92068 60.9295 9.75611 60.9106 9.70125C60.4758 8.43949 59.2087 7.61661 57.6583 7.61661C55.1434 7.61661 53.3848 9.66467 53.3848 12.4442C53.3848 15.2237 55.1434 17.2718 57.6583 17.2718C59.1709 17.2718 60.4568 16.4672 60.9106 15.1505C60.9295 15.0957 61.0052 14.9494 61.1375 15.0043C61.251 15.0591 61.1943 15.2054 61.1375 15.3518C60.9863 15.754 60.9484 16.0101 60.9484 16.3209V16.9796C60.9484 17.0601 61.0137 17.1255 61.0942 17.1255H62.3153C62.3959 17.1255 62.4612 17.0601 62.4612 16.9796V4.87388C62.4612 4.79333 62.3959 4.72803 62.3153 4.72803H61.0942ZM57.8852 15.9553C55.9186 15.9553 54.8976 14.346 54.8976 12.4442C54.8976 10.5424 55.9186 8.93322 57.8852 8.93322C59.6816 8.93322 60.9484 10.5424 60.9484 12.4442C60.9484 14.346 59.6816 15.9553 57.8852 15.9553Z" fill="#222222"/>
<path d="M73.0672 12.2603C73.0672 9.09887 70.7924 7.7876 68.6165 7.7876C65.8075 7.7876 63.8889 9.70961 63.8889 12.5297C63.8889 15.0625 65.5702 17.2719 68.656 17.2719C71.052 17.2719 72.4242 15.7614 72.8431 14.2882C72.8689 14.1979 72.7994 14.1105 72.7054 14.1105H71.3319C71.2695 14.1105 71.2143 14.1502 71.1927 14.2087C70.8258 15.2037 70.1137 15.9786 68.7153 15.9786C66.7616 15.9786 65.5867 14.5973 65.4426 13.0418C65.4349 12.9588 65.5015 12.889 65.5849 12.889H72.8985C72.9723 12.889 73.0346 12.834 73.0419 12.7607C73.0559 12.6195 73.0672 12.4501 73.0672 12.2603ZM68.7352 9.00905C70.2679 9.00905 71.281 9.98631 71.469 11.5819C71.4791 11.6665 71.4117 11.7394 71.3265 11.7394H65.6793C65.5905 11.7394 65.5221 11.6605 65.5377 11.5731C65.7932 10.1418 66.6589 9.00905 68.7352 9.00905Z" fill="#222222"/>
<path d="M80.0673 7.96609C80.0858 7.87384 80.0151 7.78771 79.921 7.78883C79.407 7.795 78.977 7.82779 78.6124 7.88921C78.1547 7.96625 77.7998 8.08836 77.5104 8.25948C76.929 8.60333 76.6118 9.14507 76.2572 9.91682C76.2545 9.92163 76.2517 9.92653 76.2491 9.93148C76.2108 10.0006 76.1681 10.078 76.0546 10.0612C75.8927 10.0431 75.9534 9.88073 76.0142 9.73638C76.1761 9.30336 76.2165 8.99663 76.2165 8.65382V8.08117C76.2165 7.99885 76.1499 7.93209 76.0675 7.93209H74.746C74.6637 7.93209 74.5969 7.99885 74.5969 8.08119V17.0211C74.5969 17.1033 74.6637 17.1701 74.746 17.1701H76.0675C76.1499 17.1701 76.2165 17.1033 76.2165 17.0211V12.4609C76.2165 11.1245 76.4826 10.2346 77.23 9.73638C77.5787 9.50395 78.0322 9.35677 78.6124 9.28927C78.9301 9.25231 79.2858 9.23924 79.6831 9.24916C79.7563 9.25098 79.8205 9.2004 79.8348 9.12871L80.0673 7.96609Z" fill="#222222"/>
<path d="M80.8688 13.9668C80.7856 13.9668 80.719 14.0366 80.7258 14.1196C80.8866 16.0603 82.365 17.2719 84.7764 17.2719C87.2693 17.2719 88.8746 16.1402 88.8746 14.2721C88.8746 12.7992 87.4392 12.1166 85.1541 11.8472C82.6802 11.5598 82.5101 10.967 82.5101 10.4461C82.5101 9.83534 83.0956 9.00905 84.7764 9.00905C86.4602 9.00905 86.9887 9.83321 87.087 10.6692C87.096 10.7455 87.1592 10.8053 87.236 10.8053H88.4338C88.5187 10.8053 88.5859 10.7329 88.576 10.6486C88.3807 9.00313 87.1217 7.7876 84.833 7.7876C82.3402 7.7876 80.9993 9.24257 80.9993 10.6257C80.9993 11.8292 82.0757 12.7992 84.1532 13.0327C86.7216 13.3201 87.3637 13.6434 87.3637 14.5416C87.3637 15.1343 86.7782 16.0503 84.852 16.0503C82.9821 16.0503 82.2761 15.0573 82.1964 14.1096C82.1898 14.0304 82.1255 13.9668 82.046 13.9668H80.8688Z" fill="#222222"/>
<path d="M94.9463 7.76297C95.0286 7.76297 95.0954 7.82971 95.0954 7.91205V8.86326C95.0954 8.9456 95.0286 9.01234 94.9463 9.01234H93.1028C93.0206 9.01234 92.9538 9.07909 92.9538 9.16142V14.5243C92.9538 15.59 93.1832 15.9207 94.2541 15.9207C94.563 15.9207 94.8416 15.8766 95.0532 15.8285C95.1374 15.8094 95.2224 15.8619 95.2395 15.9465L95.3982 16.7404C95.4115 16.8065 95.3789 16.8733 95.3174 16.9005C95.1159 16.9895 94.724 17.1352 94.2541 17.1701C92.2328 17.3197 91.424 16.6005 91.424 14.4141V9.16142C91.424 9.07909 91.3573 9.01234 91.2749 9.01234H89.7375C89.655 9.01234 89.5884 8.9456 89.5884 8.86326V7.91205C89.5884 7.82971 89.655 7.76297 89.7375 7.76297H91.2749C91.3573 7.76297 91.424 7.69623 91.424 7.61389V5.15644C91.424 5.08537 91.4742 5.02419 91.5439 5.01024L92.7755 4.76393C92.8677 4.74548 92.9538 4.81603 92.9538 4.91011V7.61389C92.9538 7.69623 93.0206 7.76297 93.1028 7.76297H94.9463Z" fill="#222222"/>
<path d="M96.1152 14.5595C96.1152 16.1402 97.6227 17.2719 99.4042 17.2719C101.244 17.2719 102.752 16.3737 103.28 14.9188C103.3 14.8469 103.359 14.7212 103.476 14.7571C103.633 14.793 103.574 14.9547 103.515 15.0984C103.378 15.4757 103.319 15.7451 103.319 16.1043V16.9824C103.319 17.0629 103.385 17.1282 103.465 17.1282H104.74C104.82 17.1282 104.886 17.0629 104.886 16.9824V11.8831C104.886 8.50609 103.026 7.7876 100.775 7.7876C98.6822 7.7876 96.8858 8.5845 96.4621 10.4913C96.4424 10.5797 96.5112 10.6616 96.6018 10.6616H97.8318C97.9032 10.6616 97.9632 10.6099 97.98 10.5405C98.1695 9.75652 98.9421 9.00905 100.618 9.00905C102.908 9.00905 103.3 10.015 103.319 10.7335C103.339 11.7573 101.479 11.6136 99.639 11.7573C97.8772 11.901 96.1152 12.5297 96.1152 14.5595ZM103.026 12.2206C103.141 12.153 103.315 12.2328 103.306 12.3654C103.161 14.6737 101.835 15.8969 100.05 16.0503C98.4253 16.1942 97.6813 15.3499 97.6813 14.4697C97.6813 13.5177 98.4644 13.1046 99.6782 12.9249C100.995 12.7235 102.312 12.6424 103.026 12.2206Z" fill="#222222"/>
<path d="M106.211 12.5297C106.211 15.1343 108.011 17.2719 110.965 17.2719C113.526 17.2719 115.039 15.6834 115.27 13.9815C115.282 13.8966 115.214 13.8231 115.128 13.8231H113.887C113.815 13.8231 113.754 13.8754 113.74 13.9458C113.503 15.1225 112.573 15.9786 111.004 15.9786C108.774 15.9786 107.776 14.3979 107.776 12.5297C107.776 10.6616 108.774 9.08092 111.004 9.08092C112.573 9.08092 113.503 9.93701 113.74 11.1137C113.754 11.1841 113.815 11.2364 113.887 11.2364H115.128C115.214 11.2364 115.282 11.1629 115.27 11.078C115.037 9.37618 113.507 7.7876 110.965 7.7876C107.952 7.7876 106.211 9.92516 106.211 12.5297Z" fill="#222222"/>
<path d="M124.865 17.1698C124.989 17.1698 125.057 17.0244 124.977 16.9296L120.624 11.7906C120.573 11.7305 120.579 11.6407 120.638 11.588L124.592 8.02798C124.691 7.93854 124.628 7.77374 124.494 7.77374H122.905C122.868 7.77374 122.831 7.7883 122.804 7.81436L118.277 12.1598C118.201 12.2332 118.123 12.3249 118.028 12.2515C117.914 12.1781 117.99 12.068 118.066 11.9763C118.354 11.6092 118.448 11.2973 118.448 10.8201V4.87388C118.448 4.79333 118.383 4.72803 118.303 4.72803H117.065C116.985 4.72803 116.919 4.79333 116.919 4.87388V17.024C116.919 17.1045 116.985 17.1698 117.065 17.1698H118.303C118.383 17.1698 118.448 17.1045 118.448 17.024V13.6191C118.448 13.578 118.466 13.5387 118.496 13.5111L119.406 12.6851C119.468 12.629 119.564 12.6362 119.617 12.7009L123.224 17.1162C123.252 17.1501 123.293 17.1698 123.337 17.1698H124.865Z" fill="#222222"/>
</g>
<defs>
<clipPath id="clip0_1856_26862">
<rect width="125" height="20.4201" fill="white" transform="translate(0.105225 0.790039)"/>
</clipPath>
</defs>
</svg>
