<?xml version="1.0" encoding="UTF-8"?>
<svg version="1.1" xmlns="http://www.w3.org/2000/svg" width="319" height="47">
<path d="M0 0 C1.01320312 -0.00257812 2.02640625 -0.00515625 3.0703125 -0.0078125 C4.1325 -0.00007812 5.1946875 0.00765625 6.2890625 0.015625 C7.34351563 0.00789062 8.39796875 0.00015625 9.484375 -0.0078125 C10.50015625 -0.00523438 11.5159375 -0.00265625 12.5625 0 C13.49239746 0.00225586 14.42229492 0.00451172 15.38037109 0.00683594 C18.07558459 0.28212273 19.65483461 0.78822427 21.9140625 2.265625 C24.40243215 5.99817948 24.45632802 7.85003435 23.9140625 12.265625 C22.1015625 14.703125 22.1015625 14.703125 18.9140625 16.265625 C15.22154528 16.5819783 11.60964779 16.49862162 7.9140625 16.265625 C8.5740625 17.255625 9.2340625 18.245625 9.9140625 19.265625 C13.03016804 19.85155134 13.03016804 19.85155134 16.5390625 19.953125 C17.72757813 20.01886719 18.91609375 20.08460937 20.140625 20.15234375 C21.05585938 20.18972656 21.97109375 20.22710938 22.9140625 20.265625 C23.29625017 21.92177157 23.62801352 23.59019524 23.9140625 25.265625 C21.86521882 27.31446868 17.95878691 26.6317808 15.1640625 26.703125 C14.44734375 26.74888672 13.730625 26.79464844 12.9921875 26.84179688 C9.96042372 26.90588747 7.79721599 26.92657524 5.31396484 25.06811523 C2.66115505 22.08739264 1.26854849 19.41513314 1.0390625 15.453125 C0.97976562 14.68355469 0.92046875 13.91398437 0.859375 13.12109375 C0.9140625 11.265625 0.9140625 11.265625 1.9140625 10.265625 C4.44455652 10.19248933 6.94711087 10.17314973 9.4765625 10.203125 C10.18748047 10.20763672 10.89839844 10.21214844 11.63085938 10.21679688 C13.39196263 10.22861636 15.15302286 10.24655237 16.9140625 10.265625 C16.9140625 9.275625 16.9140625 8.285625 16.9140625 7.265625 C11.3040625 7.265625 5.6940625 7.265625 -0.0859375 7.265625 C-0.06273437 8.54179687 -0.03953125 9.81796875 -0.015625 11.1328125 C0.00313079 12.8020775 0.02133119 14.4713488 0.0390625 16.140625 C0.05582031 16.98238281 0.07257813 17.82414062 0.08984375 18.69140625 C0.09628906 19.49707031 0.10273438 20.30273438 0.109375 21.1328125 C0.11984863 21.87644043 0.13032227 22.62006836 0.14111328 23.38623047 C-0.0859375 25.265625 -0.0859375 25.265625 -2.0859375 27.265625 C-5.62165179 26.72991071 -5.62165179 26.72991071 -7.0859375 25.265625 C-7.33802472 21.45974356 -7.27116094 17.64137044 -7.2734375 13.828125 C-7.28568359 12.75240234 -7.29792969 11.67667969 -7.31054688 10.56835938 C-7.31248047 9.54162109 -7.31441406 8.51488281 -7.31640625 7.45703125 C-7.32051514 6.51029541 -7.32462402 5.56355957 -7.32885742 4.58813477 C-6.83407644 -0.14236921 -4.05931425 0.00987153 0 0 Z " fill="#040304" transform="translate(153.0859375,10.734375)"/>
<path d="M0 0 C1.40185547 0.00966797 1.40185547 0.00966797 2.83203125 0.01953125 C4.28416016 0.04466797 4.28416016 0.04466797 5.765625 0.0703125 C6.74917969 0.07933594 7.73273438 0.08835937 8.74609375 0.09765625 C11.16951907 0.12118465 13.59244722 0.15405882 16.015625 0.1953125 C16.675625 1.5153125 17.335625 2.8353125 18.015625 4.1953125 C16.38490277 6.1544599 15.46483666 7.1021454 12.9309082 7.62768555 C12.15062256 7.65386963 11.37033691 7.68005371 10.56640625 7.70703125 C9.29506836 7.76020508 9.29506836 7.76020508 7.99804688 7.81445312 C7.11697266 7.83701172 6.23589844 7.85957031 5.328125 7.8828125 C3.98911133 7.93405273 3.98911133 7.93405273 2.62304688 7.98632812 C0.42069829 8.06876898 -1.78125438 8.13792801 -3.984375 8.1953125 C-3.984375 8.5253125 -3.984375 8.8553125 -3.984375 9.1953125 C-2.23060547 9.21658203 -2.23060547 9.21658203 -0.44140625 9.23828125 C1.10680957 9.28519688 2.65498544 9.33344419 4.203125 9.3828125 C4.97205078 9.38861328 5.74097656 9.39441406 6.53320312 9.40039062 C10.76882182 9.56399821 12.5686879 9.84982027 16.02734375 12.5234375 C18.015625 15.1953125 18.015625 15.1953125 18.640625 18.7578125 C18.015625 22.1953125 18.015625 22.1953125 16.21484375 24.39453125 C11.33134498 27.14336267 6.70076114 26.61994725 1.203125 26.4453125 C0.12869141 26.42726563 -0.94574219 26.40921875 -2.05273438 26.390625 C-4.69752965 26.34360642 -7.34049089 26.2779041 -9.984375 26.1953125 C-10.36656267 24.53916593 -10.69832602 22.87074226 -10.984375 21.1953125 C-9.40033976 19.61127726 -7.7072112 19.97556315 -5.51171875 19.87890625 C-4.61259766 19.83701172 -3.71347656 19.79511719 -2.78710938 19.75195312 C-1.84158203 19.71263672 -0.89605469 19.67332031 0.078125 19.6328125 C1.02751953 19.58962891 1.97691406 19.54644531 2.95507812 19.50195312 C5.30843853 19.39551974 7.66190854 19.29350242 10.015625 19.1953125 C10.015625 18.5353125 10.015625 17.8753125 10.015625 17.1953125 C8.83484375 17.16953125 7.6540625 17.14375 6.4375 17.1171875 C4.88017177 17.06089853 3.32288153 17.00355136 1.765625 16.9453125 C0.59966797 16.92404297 0.59966797 16.92404297 -0.58984375 16.90234375 C-4.38180153 16.74029427 -6.38635712 16.65063224 -9.47265625 14.30078125 C-11.27885486 11.7851713 -11.90864355 10.30030196 -11.984375 7.1953125 C-9.42620827 1.40577727 -6.13521446 -0.07481969 0 0 Z " fill="#6067F1" transform="translate(191.984375,10.8046875)"/>
<path d="M0 0 C0.84626953 -0.03287109 1.69253906 -0.06574219 2.56445312 -0.09960938 C7.05599075 -0.13829921 8.94461945 -0.04992131 12.578125 2.81640625 C16.23463316 7.64616408 17.09491311 11.36799052 16.5625 17.4375 C15.09889752 21.06165853 13.63630719 23.99007512 10.5625 26.4375 C6.94867615 27.09826082 3.29256927 26.946898 -0.375 26.9375 C-1.37724609 26.96585938 -2.37949219 26.99421875 -3.41210938 27.0234375 C-10.7758762 27.04308731 -10.7758762 27.04308731 -14.06640625 24.03125 C-16.09753508 20.18888662 -16.62262024 18.00979024 -16.6875 13.625 C-16.71328125 12.58730469 -16.7390625 11.54960937 -16.765625 10.48046875 C-16.38901852 6.98789202 -15.58062477 5.20328939 -13.4375 2.4375 C-9.0946364 -0.2050779 -4.95068292 0.03378025 0 0 Z M-8.4375 7.4375 C-10.90074069 11.13236103 -10.82741688 13.07043092 -10.4375 17.4375 C-9.47295441 19.29558326 -9.47295441 19.29558326 -7.4375 20.4375 C-4.78753674 20.6547101 -2.38673442 20.72101554 0.25 20.625 C0.95189453 20.61146484 1.65378906 20.59792969 2.37695312 20.58398438 C4.10579829 20.54870182 5.83424765 20.49489583 7.5625 20.4375 C10.1793673 16.04693007 10.1793673 16.04693007 9.8125 11.125 C8.81240508 8.57309176 8.81240508 8.57309176 7.5625 7.4375 C4.90247189 7.28432009 2.2862812 7.20590125 -0.375 7.1875 C-1.4877832 7.1565625 -1.4877832 7.1565625 -2.62304688 7.125 C-5.03217535 7.07287261 -5.03217535 7.07287261 -8.4375 7.4375 Z " fill="#040404" transform="translate(59.4375,10.5625)"/>
<path d="M0 0 C0.96035156 -0.00386719 1.92070312 -0.00773438 2.91015625 -0.01171875 C3.91175781 -0.00011719 4.91335938 0.01148438 5.9453125 0.0234375 C6.93917969 0.01183594 7.93304688 0.00023437 8.95703125 -0.01171875 C18.13615957 0.02514522 18.13615957 0.02514522 22.0703125 3.3984375 C23.78489155 6.28204773 24.07771343 8.04319288 24.0078125 11.3984375 C22.7796027 15.32870887 21.30089108 16.84640845 18.0703125 19.3984375 C15.0935508 19.79259369 12.75916672 19.92672306 9.8203125 19.7734375 C9.088125 19.75925781 8.3559375 19.74507812 7.6015625 19.73046875 C2.25379464 19.58191964 2.25379464 19.58191964 1.0703125 18.3984375 C1.02967418 16.73226635 1.0275915 15.06455655 1.0703125 13.3984375 C3.90300916 11.98208917 6.54497688 12.052137 9.6953125 11.8359375 C11.47808594 11.71025391 11.47808594 11.71025391 13.296875 11.58203125 C14.21210938 11.52144531 15.12734375 11.46085937 16.0703125 11.3984375 C16.0703125 10.4084375 16.0703125 9.4184375 16.0703125 8.3984375 C10.4603125 8.0684375 4.8503125 7.7384375 -0.9296875 7.3984375 C-0.9296875 13.6684375 -0.9296875 19.9384375 -0.9296875 26.3984375 C-2.5796875 26.7284375 -4.2296875 27.0584375 -5.9296875 27.3984375 C-8.84462075 23.02603762 -8.25939627 19.04041689 -8.2421875 13.8984375 C-8.25830078 12.93550781 -8.27441406 11.97257812 -8.29101562 10.98046875 C-8.29166016 10.05621094 -8.29230469 9.13195312 -8.29296875 8.1796875 C-8.29594971 7.33470703 -8.29893066 6.48972656 -8.30200195 5.61914062 C-7.9296875 3.3984375 -7.9296875 3.3984375 -6.71508789 1.62451172 C-4.36492747 0.01060421 -2.83940423 0.01099124 0 0 Z " fill="#4715D8" transform="translate(287.9296875,10.6015625)"/>
<path d="M0 0 C3.91707193 1.39895426 5.25633995 2.83003118 7.2265625 6.453125 C8.8962209 10.12022749 10.46002315 13.81392294 11.9375 17.5625 C12.22117432 18.26834229 12.50484863 18.97418457 12.79711914 19.70141602 C13.55859375 21.73828125 13.55859375 21.73828125 14.5 25.25 C13.84 26.24 13.18 27.23 12.5 28.25 C10.85 27.92 9.2 27.59 7.5 27.25 C7.5 26.26 7.5 25.27 7.5 24.25 C6.46939453 24.30220703 6.46939453 24.30220703 5.41796875 24.35546875 C4.51691406 24.38253906 3.61585938 24.40960938 2.6875 24.4375 C1.34751953 24.48970703 1.34751953 24.48970703 -0.01953125 24.54296875 C-2.91647515 24.20081002 -3.72555028 23.49606427 -5.5 21.25 C-4.9375 19.3125 -4.9375 19.3125 -3.5 17.25 C0.125 16.5 0.125 16.5 3.5 16.25 C2.18 13.61 0.86 10.97 -0.5 8.25 C-3.21089574 10.96089574 -3.87562736 11.65565127 -4.9296875 15.0078125 C-5.16816406 15.71550781 -5.40664062 16.42320313 -5.65234375 17.15234375 C-6.13567451 18.63891241 -6.60959079 20.12857378 -7.07421875 21.62109375 C-7.8046875 23.7578125 -7.8046875 23.7578125 -9.5 27.25 C-12.1328125 28.3046875 -12.1328125 28.3046875 -14.5 28.25 C-14.83 27.92 -15.16 27.59 -15.5 27.25 C-15.07809856 21.56673948 -13.88123529 16.76350534 -11.75 11.5 C-11.39035156 10.53126953 -11.39035156 10.53126953 -11.0234375 9.54296875 C-8.79288308 3.94358729 -6.21221987 0.44372999 0 0 Z " fill="#040303" transform="translate(128.5,9.75)"/>
<path d="M0 0 C3.29237055 0.10959718 6.58356887 0.24028931 9.875 0.375 C10.81214844 0.4059375 11.74929688 0.436875 12.71484375 0.46875 C13.61074219 0.50742188 14.50664062 0.54609375 15.4296875 0.5859375 C16.67081299 0.63306885 16.67081299 0.63306885 17.93701172 0.68115234 C20 1 20 1 22 3 C21.46428571 6.53571429 21.46428571 6.53571429 20 8 C16.1744083 8.20352902 12.35529218 8.34713381 8.52539062 8.4296875 C7.72423828 8.460625 6.92308594 8.4915625 6.09765625 8.5234375 C4.99176147 8.5531665 4.99176147 8.5531665 3.86352539 8.58349609 C1.59007774 8.86627433 1.59007774 8.86627433 0 12 C0.15827178 15.60867549 0.15827178 15.60867549 1 19 C4.61289762 20.80644881 9.15231909 19.98958751 13.14648438 19.87304688 C16.9970275 19.81304758 18.71405254 19.80936836 22 22 C21.67 23.65 21.34 25.3 21 27 C17.41694008 27.11627503 13.83436583 27.1872736 10.25 27.25 C9.23421875 27.28351562 8.2184375 27.31703125 7.171875 27.3515625 C-0.36760977 27.45076625 -0.36760977 27.45076625 -3.625 25.12890625 C-6.69311195 20.37856247 -7.48984639 16.6822181 -7 11 C-6.01890182 7.45515621 -4.9929824 4.65253129 -1.8125 2.5625 C-1.214375 2.376875 -0.61625 2.19125 0 2 C0 1.34 0 0.68 0 0 Z " fill="#4C36B8" transform="translate(255,10)"/>
<path d="M0 0 C0.639375 0.2475 1.27875 0.495 1.9375 0.75 C3.52775258 5.52075774 1.1356952 9.16789507 -0.6875 13.6875 C-1.03167969 14.59435547 -1.37585938 15.50121094 -1.73046875 16.43554688 C-3.70153833 21.37776747 -5.238962 25.01460704 -10.0625 27.75 C-13.5625 28 -13.5625 28 -17.0625 26.75 C-19.53846433 23.90171021 -22.0625 20.62981951 -22.0625 16.75 C-22.7225 16.42 -23.3825 16.09 -24.0625 15.75 C-24.9140625 13.5703125 -24.9140625 13.5703125 -25.6875 10.875 C-25.94789062 9.99070312 -26.20828125 9.10640625 -26.4765625 8.1953125 C-27.0625 5.75 -27.0625 5.75 -27.0625 2.75 C-25.4125 2.09 -23.7625 1.43 -22.0625 0.75 C-19.36271972 5.95671911 -17.08037487 11.12962589 -15.08984375 16.6484375 C-14.12297848 19.07360866 -14.12297848 19.07360866 -11.0625 20.75 C-10.89234375 20.22792969 -10.7221875 19.70585937 -10.546875 19.16796875 C-9.73131482 16.69092161 -8.89988588 14.21975835 -8.0625 11.75 C-7.72605469 10.75613281 -7.38960937 9.76226562 -7.04296875 8.73828125 C-6.69878906 7.75214844 -6.35460937 6.76601563 -6 5.75 C-5.67902344 4.821875 -5.35804687 3.89375 -5.02734375 2.9375 C-3.79260436 0.13809085 -3.04449941 -0.36903023 0 0 Z " fill="#030303" transform="translate(37.0625,10.25)"/>
<path d="M0 0 C1.20269531 -0.00128906 2.40539062 -0.00257812 3.64453125 -0.00390625 C4.90652344 -0.00003906 6.16851562 0.00382813 7.46875 0.0078125 C9.36173828 0.00201172 9.36173828 0.00201172 11.29296875 -0.00390625 C12.49566406 -0.00261719 13.69835937 -0.00132813 14.9375 0 C16.04544922 0.00112793 17.15339844 0.00225586 18.29492188 0.00341797 C20.96875 0.1328125 20.96875 0.1328125 22.96875 1.1328125 C22.09375 6.0078125 22.09375 6.0078125 20.96875 7.1328125 C19.28266034 7.20486761 17.59374341 7.21667318 15.90625 7.1953125 C14.98714844 7.18628906 14.06804687 7.17726563 13.12109375 7.16796875 C12.41082031 7.15636719 11.70054687 7.14476562 10.96875 7.1328125 C10.99195313 8.40898437 11.01515625 9.68515625 11.0390625 11 C11.05781829 12.669265 11.07601869 14.3385363 11.09375 16.0078125 C11.11050781 16.84957031 11.12726563 17.69132812 11.14453125 18.55859375 C11.15097656 19.36425781 11.15742188 20.16992188 11.1640625 21 C11.17453613 21.74362793 11.18500977 22.48725586 11.19580078 23.25341797 C10.96875 25.1328125 10.96875 25.1328125 8.96875 27.1328125 C7.31875 26.8028125 5.66875 26.4728125 3.96875 26.1328125 C3.96875 19.8628125 3.96875 13.5928125 3.96875 7.1328125 C0.16015625 7.18164062 0.16015625 7.18164062 -3.6484375 7.23046875 C-6.03125 7.1328125 -6.03125 7.1328125 -8.03125 6.1328125 C-8.03125 4.4828125 -8.03125 2.8328125 -8.03125 1.1328125 C-5.28600448 -0.23981026 -3.06905705 0.0031244 0 0 Z " fill="#5854C4" transform="translate(222.03125,10.8671875)"/>
<path d="M0 0 C0.6875 1.8125 0.6875 1.8125 1 4 C-1.20230649 6.83574582 -3.69330084 7.87514645 -7 9.125 C-7.86625 9.45757812 -8.7325 9.79015625 -9.625 10.1328125 C-11.4066429 10.78334659 -13.20063861 11.40021287 -15 12 C-12.42738328 15.07634587 -9.56405548 16.17604568 -5.875 17.625 C-0.08333333 19.91666667 -0.08333333 19.91666667 1 21 C1.04063832 22.66617115 1.042721 24.33388095 1 26 C-3.06756684 27.35585561 -5.58953779 25.91695468 -9.375 24.375 C-10.035 24.12621094 -10.695 23.87742187 -11.375 23.62109375 C-15.84486428 21.83136722 -18.85423506 19.77016062 -22 16 C-22.6875 13 -22.6875 13 -22 10 C-16.68981199 4.11573761 -8.01591571 -0.50733644 0 0 Z " fill="#020302" transform="translate(109,11)"/>
<path d="M0 0 C1.40185547 0.00966797 1.40185547 0.00966797 2.83203125 0.01953125 C4.28416016 0.04466797 4.28416016 0.04466797 5.765625 0.0703125 C6.74917969 0.07933594 7.73273438 0.08835937 8.74609375 0.09765625 C11.16951907 0.12118465 13.59244722 0.15405882 16.015625 0.1953125 C16.675625 1.5153125 17.335625 2.8353125 18.015625 4.1953125 C16.38490277 6.1544599 15.46483666 7.1021454 12.9309082 7.62768555 C12.15062256 7.65386963 11.37033691 7.68005371 10.56640625 7.70703125 C9.29506836 7.76020508 9.29506836 7.76020508 7.99804688 7.81445312 C7.11697266 7.83701172 6.23589844 7.85957031 5.328125 7.8828125 C3.98911133 7.93405273 3.98911133 7.93405273 2.62304688 7.98632812 C0.42069829 8.06876898 -1.78125438 8.13792801 -3.984375 8.1953125 C-3.984375 8.5253125 -3.984375 8.8553125 -3.984375 9.1953125 C-2.23060547 9.21658203 -2.23060547 9.21658203 -0.44140625 9.23828125 C1.10680957 9.28519688 2.65498544 9.33344419 4.203125 9.3828125 C4.97205078 9.38861328 5.74097656 9.39441406 6.53320312 9.40039062 C10.76882182 9.56399821 12.5686879 9.84982027 16.02734375 12.5234375 C18.015625 15.1953125 18.015625 15.1953125 18.640625 18.7578125 C18.015625 22.1953125 18.015625 22.1953125 16.21484375 24.39453125 C11.33134498 27.14336267 6.70076114 26.61994725 1.203125 26.4453125 C0.12869141 26.42726563 -0.94574219 26.40921875 -2.05273438 26.390625 C-4.69752965 26.34360642 -7.34049089 26.2779041 -9.984375 26.1953125 C-10.36656267 24.53916593 -10.69832602 22.87074226 -10.984375 21.1953125 C-9.984375 20.1953125 -9.984375 20.1953125 -7.26171875 20.09765625 C-6.15957031 20.10925781 -5.05742187 20.12085937 -3.921875 20.1328125 C-2.26478516 20.14634766 -2.26478516 20.14634766 -0.57421875 20.16015625 C0.28042969 20.17175781 1.13507813 20.18335937 2.015625 20.1953125 C2.015625 20.5253125 2.015625 20.8553125 2.015625 21.1953125 C-1.614375 21.1953125 -5.244375 21.1953125 -8.984375 21.1953125 C-8.654375 22.1853125 -8.324375 23.1753125 -7.984375 24.1953125 C-4.73445054 24.25350674 -1.48466065 24.28897366 1.765625 24.3203125 C2.68601563 24.33707031 3.60640625 24.35382812 4.5546875 24.37109375 C5.44414062 24.37753906 6.33359375 24.38398437 7.25 24.390625 C8.47541504 24.40633545 8.47541504 24.40633545 9.72558594 24.42236328 C12.23450018 24.17361166 13.84958125 23.45231379 16.015625 22.1953125 C16.24990813 17.4055804 16.24990813 17.4055804 14.015625 13.1953125 C10.25262126 11.94097792 6.74351591 12.08835828 2.828125 12.1328125 C2.07853516 12.13732422 1.32894531 12.14183594 0.55664062 12.14648438 C-1.29039883 12.15824896 -3.13739713 12.17618385 -4.984375 12.1953125 C-4.984375 11.5353125 -4.984375 10.8753125 -4.984375 10.1953125 C-5.644375 10.1953125 -6.304375 10.1953125 -6.984375 10.1953125 C-6.984375 8.8753125 -6.984375 7.5553125 -6.984375 6.1953125 C-2.27976177 4.33398577 1.8913946 3.9443629 6.890625 4.0703125 C7.92316406 4.08384766 7.92316406 4.08384766 8.9765625 4.09765625 C10.65640338 4.12098737 12.33606246 4.15684924 14.015625 4.1953125 C14.345625 3.5353125 14.675625 2.8753125 15.015625 2.1953125 C11.95258922 2.11415257 8.89171685 2.05473841 5.828125 2.0078125 C4.96380859 1.98267578 4.09949219 1.95753906 3.20898438 1.93164062 C-1.6240097 1.87608897 -5.15729333 1.86204782 -8.984375 5.1953125 C-9.87644679 8.2910232 -9.87644679 8.2910232 -9.984375 11.1953125 C-9.324375 11.1953125 -8.664375 11.1953125 -7.984375 11.1953125 C-7.654375 11.8553125 -7.324375 12.5153125 -6.984375 13.1953125 C-2.91694059 14.40047825 1.05281062 14.26581985 5.265625 14.1953125 C7.51531515 14.15797324 9.76611825 14.14820241 12.015625 14.1953125 C13.015625 15.1953125 13.015625 15.1953125 13.140625 17.6953125 C13.015625 20.1953125 13.015625 20.1953125 12.015625 21.1953125 C10.49634462 21.26711214 8.97395018 21.27923257 7.453125 21.2578125 C6.62683594 21.24878906 5.80054688 21.23976563 4.94921875 21.23046875 C3.99208984 21.21306641 3.99208984 21.21306641 3.015625 21.1953125 C3.015625 20.8653125 3.015625 20.5353125 3.015625 20.1953125 C6.480625 19.7003125 6.480625 19.7003125 10.015625 19.1953125 C10.015625 18.5353125 10.015625 17.8753125 10.015625 17.1953125 C8.83484375 17.16953125 7.6540625 17.14375 6.4375 17.1171875 C4.88017177 17.06089853 3.32288153 17.00355136 1.765625 16.9453125 C0.59966797 16.92404297 0.59966797 16.92404297 -0.58984375 16.90234375 C-4.38180153 16.74029427 -6.38635712 16.65063224 -9.47265625 14.30078125 C-11.27885486 11.7851713 -11.90864355 10.30030196 -11.984375 7.1953125 C-9.42620827 1.40577727 -6.13521446 -0.07481969 0 0 Z " fill="#5D61B9" transform="translate(191.984375,10.8046875)"/>
<path d="M0 0 C3.60401481 -0.08701039 7.20776012 -0.14039388 10.8125 -0.1875 C12.34874023 -0.22520508 12.34874023 -0.22520508 13.91601562 -0.26367188 C15.39038086 -0.27817383 15.39038086 -0.27817383 16.89453125 -0.29296875 C18.25348511 -0.31653442 18.25348511 -0.31653442 19.63989258 -0.34057617 C22 0 22 0 23.79858398 1.33813477 C25.63318792 3.87586063 25.32418672 6.04625124 25.25 9.125 C25.23453125 10.20007813 25.2190625 11.27515625 25.203125 12.3828125 C25 15 25 15 24 16 C21.30345146 16.07319621 18.63308542 16.09242537 15.9375 16.0625 C15.17888672 16.05798828 14.42027344 16.05347656 13.63867188 16.04882812 C11.75908129 16.0370068 9.87953101 16.01907078 8 16 C7.67 14.68 7.34 13.36 7 12 C11.62 11.67 16.24 11.34 21 11 C21 8.69 21 6.38 21 4 C18.06281233 3.80538512 15.12550068 3.61902407 12.1875 3.4375 C10.93743164 3.35338867 10.93743164 3.35338867 9.66210938 3.26757812 C8.85966797 3.21923828 8.05722656 3.17089844 7.23046875 3.12109375 C6.12288208 3.05039673 6.12288208 3.05039673 4.99291992 2.97827148 C2.78811208 2.90070362 2.78811208 2.90070362 0 4 C0 2.68 0 1.36 0 0 Z " fill="#6417E9" transform="translate(284,13)"/>
<path d="M0 0 C1.65 0.33 3.3 0.66 5 1 C5 9.25 5 17.5 5 26 C3.35 26.33 1.7 26.66 0 27 C-1.74545605 25.25454395 -1.1302316 22.83875783 -1.1328125 20.46875 C-1.13410156 19.34855469 -1.13539062 18.22835938 -1.13671875 17.07421875 C-1.13285156 15.89472656 -1.12898438 14.71523438 -1.125 13.5 C-1.12886719 12.32050781 -1.13273437 11.14101563 -1.13671875 9.92578125 C-1.13542969 8.80558594 -1.13414063 7.68539063 -1.1328125 6.53125 C-1.13168457 5.49548828 -1.13055664 4.45972656 -1.12939453 3.39257812 C-1 1 -1 1 0 0 Z " fill="#050505" transform="translate(81,11)"/>
<path d="M0 0 C0.96035156 -0.00386719 1.92070312 -0.00773438 2.91015625 -0.01171875 C3.91175781 -0.00011719 4.91335938 0.01148438 5.9453125 0.0234375 C6.93917969 0.01183594 7.93304688 0.00023437 8.95703125 -0.01171875 C18.13615957 0.02514522 18.13615957 0.02514522 22.0703125 3.3984375 C23.87182935 6.4282613 24.09710552 8.05682645 23.8203125 11.5859375 C23.0703125 14.3984375 23.0703125 14.3984375 21.0703125 16.3984375 C20.5753125 9.9634375 20.5753125 9.9634375 20.0703125 3.3984375 C7.2003125 2.9034375 7.2003125 2.9034375 -5.9296875 2.3984375 C-6.01961511 10.32912381 -6.01961511 10.32912381 -4.9296875 17.3984375 C-4.89144127 19.73145736 -4.88394466 22.06555258 -4.9296875 24.3984375 C-3.9396875 24.3984375 -2.9496875 24.3984375 -1.9296875 24.3984375 C-1.9296875 18.7884375 -1.9296875 13.1784375 -1.9296875 7.3984375 C-1.5996875 7.3984375 -1.2696875 7.3984375 -0.9296875 7.3984375 C-0.9296875 13.6684375 -0.9296875 19.9384375 -0.9296875 26.3984375 C-2.5796875 26.7284375 -4.2296875 27.0584375 -5.9296875 27.3984375 C-8.84462075 23.02603762 -8.25939627 19.04041689 -8.2421875 13.8984375 C-8.25830078 12.93550781 -8.27441406 11.97257812 -8.29101562 10.98046875 C-8.29166016 10.05621094 -8.29230469 9.13195312 -8.29296875 8.1796875 C-8.29594971 7.33470703 -8.29893066 6.48972656 -8.30200195 5.61914062 C-7.9296875 3.3984375 -7.9296875 3.3984375 -6.71508789 1.62451172 C-4.36492747 0.01060421 -2.83940423 0.01099124 0 0 Z " fill="#422CB8" transform="translate(287.9296875,10.6015625)"/>
<path d="M0 0 C0.80550293 -0.02126953 1.61100586 -0.04253906 2.44091797 -0.06445312 C4.74609375 -0.078125 4.74609375 -0.078125 8.5625 0.25 C9.2225 1.24 9.8825 2.23 10.5625 3.25 C9.9025 3.25 9.2425 3.25 8.5625 3.25 C8.5625 3.91 8.5625 4.57 8.5625 5.25 C5.2625 5.58 1.9625 5.91 -1.4375 6.25 C-2.0975 7.9 -2.7575 9.55 -3.4375 11.25 C-4.0975 10.92 -4.7575 10.59 -5.4375 10.25 C-5.4375 8.93 -5.4375 7.61 -5.4375 6.25 C-6.0975 6.25 -6.7575 6.25 -7.4375 6.25 C-7.4375 5.59 -7.4375 4.93 -7.4375 4.25 C-11.0675 4.25 -14.6975 4.25 -18.4375 4.25 C-18.4375 3.26 -18.4375 2.27 -18.4375 1.25 C-12.29348748 0.33977592 -6.20221336 0.08356459 0 0 Z " fill="#5A4FEC" transform="translate(233.4375,11.75)"/>
<path d="M0 0 C5.94 0 11.88 0 18 0 C18.33 1.65 18.66 3.3 19 5 C18 6 18 6 16.23413086 6.11352539 C15.48526611 6.10828857 14.73640137 6.10305176 13.96484375 6.09765625 C13.15595703 6.09443359 12.34707031 6.09121094 11.51367188 6.08789062 C10.66353516 6.07951172 9.81339844 6.07113281 8.9375 6.0625 C8.08349609 6.05798828 7.22949219 6.05347656 6.34960938 6.04882812 C4.23304337 6.03700373 2.11651315 6.01906769 0 6 C-1.125 2.25 -1.125 2.25 0 0 Z " fill="#492FC4" transform="translate(258,21)"/>
<path d="M0 0 C0 3.96 0 7.92 0 12 C2.7902667 12.9300889 4.76529542 13.18698769 7.66796875 13.31640625 C9.00698242 13.37924805 9.00698242 13.37924805 10.37304688 13.44335938 C11.76620117 13.50233398 11.76620117 13.50233398 13.1875 13.5625 C14.12787109 13.60568359 15.06824219 13.64886719 16.03710938 13.69335938 C18.35792854 13.79938665 20.67885325 13.90145029 23 14 C23 14.99 23 15.98 23 17 C19.56265937 17.08703823 16.12560163 17.14040272 12.6875 17.1875 C11.71103516 17.21263672 10.73457031 17.23777344 9.72851562 17.26367188 C8.32182617 17.27817383 8.32182617 17.27817383 6.88671875 17.29296875 C6.02264404 17.3086792 5.15856934 17.32438965 4.26831055 17.34057617 C1.50600804 16.92582943 0.69932407 16.16756192 -1 14 C-3.37061328 9.63308079 -3.16434622 5.84821346 -3 1 C-1 0 -1 0 0 0 Z " fill="#4F3CE7" transform="translate(253,18)"/>
<path d="M0 0 C2.47557645 3.71336468 2 5.59826159 2 10 C2.66 12.31 3.32 14.62 4 17 C11.59 17.33 19.18 17.66 27 18 C27.33 17.01 27.66 16.02 28 15 C27.67 16.65 27.34 18.3 27 20 C23.41694008 20.11627503 19.83436583 20.1872736 16.25 20.25 C15.23421875 20.28351562 14.2184375 20.31703125 13.171875 20.3515625 C5.63239023 20.45076625 5.63239023 20.45076625 2.375 18.12890625 C-1.10887479 12.73483875 -1.80227189 7.91107547 -0.5 1.5625 C-0.335 1.046875 -0.17 0.53125 0 0 Z " fill="#463BBC" transform="translate(249,17)"/>
<path d="M0 0 C1 1 1 1 1.125 4.5 C1 8 1 8 0 9 C-2.35313555 9.07271741 -4.70833668 9.08370868 -7.0625 9.0625 C-8.35285156 9.05347656 -9.64320313 9.04445313 -10.97265625 9.03515625 C-11.97167969 9.02355469 -12.97070312 9.01195312 -14 9 C-13.67 9.99 -13.34 10.98 -13 12 C-6.07 12.495 -6.07 12.495 1 13 C1 13.33 1 13.66 1 14 C-1.64590014 14.02684679 -4.29153096 14.04676357 -6.9375 14.0625 C-8.06961914 14.07506836 -8.06961914 14.07506836 -9.22460938 14.08789062 C-11.14994313 14.09652441 -13.07535581 14.05224333 -15 14 C-16 13 -16 13 -16.0625 10.4375 C-16.041875 9.633125 -16.02125 8.82875 -16 8 C-13.16730334 6.58365167 -10.52533562 6.6536995 -7.375 6.4375 C-5.59222656 6.31181641 -5.59222656 6.31181641 -3.7734375 6.18359375 C-2.85820312 6.12300781 -1.94296875 6.06242187 -1 6 C-1 5.01 -1 4.02 -1 3 C-6.61 2.67 -12.22 2.34 -18 2 C-18 1.67 -18 1.34 -18 1 C-12.00670719 0.11210477 -6.06281442 -0.40182396 0 0 Z " fill="#4E2EBE" transform="translate(305,16)"/>
<path d="M0 0 C2.73083902 -0.13548815 5.45491807 -0.23429855 8.1875 -0.3125 C8.95642578 -0.35439453 9.72535156 -0.39628906 10.51757812 -0.43945312 C14.80529056 -0.53146412 16.48472522 -0.39297221 20.01171875 2.296875 C22 5 22 5 22.625 8.5625 C22 12 22 12 20.19921875 14.19921875 C15.31571998 16.94805017 10.68513614 16.42463475 5.1875 16.25 C4.11306641 16.23195313 3.03863281 16.21390625 1.93164062 16.1953125 C-0.71315465 16.14829392 -3.35611589 16.0825916 -6 16 C-6.38218767 14.34385343 -6.71395102 12.67542976 -7 11 C-6 10 -6 10 -3.27734375 9.90234375 C-1.62412109 9.91974609 -1.62412109 9.91974609 0.0625 9.9375 C1.71958984 9.95103516 1.71958984 9.95103516 3.41015625 9.96484375 C4.26480469 9.97644531 5.11945313 9.98804688 6 10 C6 10.33 6 10.66 6 11 C2.37 11 -1.26 11 -5 11 C-4.67 11.99 -4.34 12.98 -4 14 C-0.75007554 14.05819424 2.49971435 14.09366116 5.75 14.125 C6.67039063 14.14175781 7.59078125 14.15851562 8.5390625 14.17578125 C9.42851562 14.18222656 10.31796875 14.18867187 11.234375 14.1953125 C12.45979004 14.21102295 12.45979004 14.21102295 13.70996094 14.22705078 C16.21887518 13.97829916 17.83395625 13.25700129 20 12 C20.23428313 7.2102679 20.23428313 7.2102679 18 3 C14.43913342 1.81304447 11.02668976 1.64904582 7.3125 1.4375 C6.61060547 1.39431641 5.90871094 1.35113281 5.18554688 1.30664062 C3.45724794 1.2008264 1.7286489 1.09993419 0 1 C0 0.67 0 0.34 0 0 Z " fill="#5C62BB" transform="translate(188,21)"/>
<path d="M0 0 C0.33 0.99 0.66 1.98 1 3 C-5.6 3 -12.2 3 -19 3 C-19.33 1.68 -19.66 0.36 -20 -1 C-13.3327426 -1.92220009 -6.33024988 -2.88541622 0 0 Z " fill="#6B71ED" transform="translate(203,33)"/>
<path d="M0 0 C0.33 0.66 0.66 1.32 1 2 C2.12019531 1.98839844 3.24039062 1.97679687 4.39453125 1.96484375 C5.86718583 1.95546378 7.33984222 1.9463638 8.8125 1.9375 C9.91948242 1.92493164 9.91948242 1.92493164 11.04882812 1.91210938 C14.29922068 1.89740172 16.89404895 1.96468298 20 3 C20 3.99 20 4.98 20 6 C13.73 6 7.46 6 1 6 C0 3 0 3 0 0 Z " fill="#5D34E4" transform="translate(255,10)"/>
<path d="M0 0 C3.56234428 -0.08741124 7.12441108 -0.14052896 10.6875 -0.1875 C11.69490234 -0.21263672 12.70230469 -0.23777344 13.74023438 -0.26367188 C23.13737112 -0.35671283 23.13737112 -0.35671283 27 3 C28.80151685 6.0298238 29.02679302 7.65838895 28.75 11.1875 C28 14 28 14 26 16 C25.505 9.565 25.505 9.565 25 3 C16.75 2.67 8.5 2.34 0 2 C0 1.34 0 0.68 0 0 Z " fill="#5B28BC" transform="translate(283,11)"/>
<path d="M0 0 C-0.33 1.32 -0.66 2.64 -1 4 C-6.28 4 -11.56 4 -17 4 C-17.33 2.68 -17.66 1.36 -18 0 C-15.75067773 -0.1954625 -13.50049858 -0.38108226 -11.25 -0.5625 C-9.99703125 -0.66691406 -8.7440625 -0.77132813 -7.453125 -0.87890625 C-4.60547636 -0.97876723 -2.65713933 -0.90584295 0 0 Z " fill="#4610D8" transform="translate(309,25)"/>
<path d="M0 0 C1.32 0 2.64 0 4 0 C4.33 0.99 4.66 1.98 5 3 C3.36927777 4.9591474 2.44921166 5.9068329 -0.0847168 6.43237305 C-0.86500244 6.45855713 -1.64528809 6.48474121 -2.44921875 6.51171875 C-3.72055664 6.56489258 -3.72055664 6.56489258 -5.01757812 6.61914062 C-5.89865234 6.64169922 -6.77972656 6.66425781 -7.6875 6.6875 C-9.02651367 6.73874023 -9.02651367 6.73874023 -10.39257812 6.79101562 C-12.59492671 6.87345648 -14.79687938 6.94261551 -17 7 C-17 7.99 -17 8.98 -17 10 C-16.01 10.33 -15.02 10.66 -14 11 C-15.32 11 -16.64 11 -18 11 C-18 10.34 -18 9.68 -18 9 C-18.66 9 -19.32 9 -20 9 C-20 7.68 -20 6.36 -20 5 C-15.29538677 3.13867327 -11.1242304 2.7490504 -6.125 2.875 C-5.09246094 2.88853516 -5.09246094 2.88853516 -4.0390625 2.90234375 C-2.35922162 2.92567487 -0.67956254 2.96153674 1 3 C1.33 2.34 1.66 1.68 2 1 C1.34 0.67 0.68 0.34 0 0 Z " fill="#575ED2" transform="translate(205,12)"/>
<path d="M0 0 C2.79173055 -0.02690104 5.58320348 -0.04679053 8.375 -0.0625 C9.56609375 -0.07506836 9.56609375 -0.07506836 10.78125 -0.08789062 C16.7734375 -0.11328125 16.7734375 -0.11328125 19 1 C18.67 1.99 18.34 2.98 18 4 C13.05 4 8.1 4 3 4 C3 3.01 3 2.02 3 1 C2.01 0.67 1.02 0.34 0 0 Z " fill="#5C62ED" transform="translate(188,12)"/>
<path d="M0 0 C0.99 0 1.98 0 3 0 C3 3.96 3 7.92 3 12 C1.68 12.33 0.36 12.66 -1 13 C-0.67 8.71 -0.34 4.42 0 0 Z " fill="#555BF1" transform="translate(228,24)"/>
<path d="M0 0 C0.66 0 1.32 0 2 0 C3 2 4 4 5 6 C4.01 6 3.02 6 2 6 C2.02320313 6.60328125 2.04640625 7.2065625 2.0703125 7.828125 C2.08835938 8.62734375 2.10640625 9.4265625 2.125 10.25 C2.14820313 11.03890625 2.17140625 11.8278125 2.1953125 12.640625 C2 15 2 15 0 19 C0 12.73 0 6.46 0 0 Z " fill="#544ECD" transform="translate(226,18)"/>
<path d="M0 0 C1 1 1 1 1.0625 4.0625 C1.041875 5.031875 1.02125 6.00125 1 7 C0.34 6.67 -0.32 6.34 -1 6 C-1 5.01 -1 4.02 -1 3 C-6.61 2.67 -12.22 2.34 -18 2 C-18 1.67 -18 1.34 -18 1 C-12.00670719 0.11210477 -6.06281442 -0.40182396 0 0 Z " fill="#5724C6" transform="translate(305,16)"/>
<path d="M0 0 C0.33 0 0.66 0 1 0 C1.33 4.29 1.66 8.58 2 13 C1.01 13 0.02 13 -1 13 C-1.02696365 11.20841511 -1.04637917 9.41671527 -1.0625 7.625 C-1.07410156 6.62726562 -1.08570313 5.62953125 -1.09765625 4.6015625 C-1 2 -1 2 0 0 Z " fill="#5830EB" transform="translate(284,22)"/>
<path d="M0 0 C0.33 4.95 0.66 9.9 1 15 C-1 14 -1 14 -2.125 11.9375 C-3.2583306 8.13274727 -3.13434296 4.9631172 -3 1 C-1 0 -1 0 0 0 Z " fill="#4D39EC" transform="translate(253,18)"/>
<path d="M0 0 C0.99 0.33 1.98 0.66 3 1 C2.25 5.75 2.25 5.75 0 8 C-0.99 7.67 -1.98 7.34 -3 7 C-2.25 2.25 -2.25 2.25 0 0 Z " fill="#482FD3" transform="translate(253,12)"/>
<path d="M0 0 C1.93719378 -0.05406122 3.87481921 -0.09282025 5.8125 -0.125 C6.89144531 -0.14820312 7.97039062 -0.17140625 9.08203125 -0.1953125 C12 0 12 0 15 2 C13.68 2 12.36 2 11 2 C11 2.66 11 3.32 11 4 C9.02 4 7.04 4 5 4 C5.66 3.34 6.32 2.68 7 2 C4.69 1.67 2.38 1.34 0 1 C0 0.67 0 0.34 0 0 Z " fill="#5C63E0" transform="translate(191,22)"/>
<path d="M0 0 C2.4375 0.375 2.4375 0.375 5 1 C5.33 1.66 5.66 2.32 6 3 C5.34 3 4.68 3 4 3 C4 3.66 4 4.32 4 5 C1.36 5 -1.28 5 -4 5 C-3.525625 4.54625 -3.05125 4.0925 -2.5625 3.625 C-0.90972192 2.06741796 -0.90972192 2.06741796 0 0 Z " fill="#5844E7" transform="translate(238,12)"/>
<path d="M0 0 C1.4370809 -0.05422947 2.87475462 -0.09289723 4.3125 -0.125 C5.11300781 -0.14820313 5.91351563 -0.17140625 6.73828125 -0.1953125 C9 0 9 0 12 2 C11.07767578 2.09087891 11.07767578 2.09087891 10.13671875 2.18359375 C9.32847656 2.26738281 8.52023437 2.35117188 7.6875 2.4375 C6.88699219 2.51871094 6.08648437 2.59992187 5.26171875 2.68359375 C2.83912821 2.95265693 2.83912821 2.95265693 0 4 C0 2.68 0 1.36 0 0 Z " fill="#6422F0" transform="translate(284,13)"/>
<path d="M0 0 C0.99 0.33 1.98 0.66 3 1 C3.042721 2.66611905 3.04063832 4.33382885 3 6 C2 7 2 7 -0.06640625 7.09765625 C-0.89011719 7.08605469 -1.71382812 7.07445312 -2.5625 7.0625 C-3.38878906 7.05347656 -4.21507812 7.04445313 -5.06640625 7.03515625 C-5.70449219 7.02355469 -6.34257812 7.01195312 -7 7 C-7 6.67 -7 6.34 -7 6 C-3.535 5.505 -3.535 5.505 0 5 C0 3.35 0 1.7 0 0 Z " fill="#555CD1" transform="translate(202,25)"/>
<path d="M0 0 C3.63 0.33 7.26 0.66 11 1 C11 1.33 11 1.66 11 2 C7.37 2.33 3.74 2.66 0 3 C0 2.01 0 1.02 0 0 Z " fill="#6124F2" transform="translate(294,25)"/>
<path d="" fill="#FFFFFF" transform="translate(0,0)"/>
<path d="" fill="#FFFFFF" transform="translate(0,0)"/>
<path d="" fill="#FFFFFF" transform="translate(0,0)"/>
<path d="" fill="#FFFFFF" transform="translate(0,0)"/>
<path d="" fill="#FFFFFF" transform="translate(0,0)"/>
<path d="" fill="#FFFFFF" transform="translate(0,0)"/>
<path d="" fill="#FFFFFF" transform="translate(0,0)"/>
<path d="" fill="#FFFFFF" transform="translate(0,0)"/>
<path d="" fill="#FFFFFF" transform="translate(0,0)"/>
<path d="" fill="#FFFFFF" transform="translate(0,0)"/>
<path d="" fill="#FFFFFF" transform="translate(0,0)"/>
<path d="" fill="#FFFFFF" transform="translate(0,0)"/>
<path d="" fill="#FFFFFF" transform="translate(0,0)"/>
<path d="" fill="#FFFFFF" transform="translate(0,0)"/>
<path d="" fill="#FFFFFF" transform="translate(0,0)"/>
<path d="" fill="#FFFFFF" transform="translate(0,0)"/>
<path d="" fill="#FFFFFF" transform="translate(0,0)"/>
<path d="" fill="#FFFFFF" transform="translate(0,0)"/>
<path d="" fill="#FFFFFF" transform="translate(0,0)"/>
<path d="" fill="#FFFFFF" transform="translate(0,0)"/>
<path d="" fill="#FFFFFF" transform="translate(0,0)"/>
<path d="" fill="#FFFFFF" transform="translate(0,0)"/>
<path d="" fill="#FFFFFF" transform="translate(0,0)"/>
<path d="" fill="#FFFFFF" transform="translate(0,0)"/>
<path d="" fill="#FFFFFF" transform="translate(0,0)"/>
<path d="" fill="#FFFFFF" transform="translate(0,0)"/>
<path d="" fill="#FEFF00" transform="translate(0,0)"/>
<path d="" fill="#FFFFFF" transform="translate(0,0)"/>
<path d="" fill="#FFFFFF" transform="translate(0,0)"/>
<path d="" fill="#FFFFFF" transform="translate(0,0)"/>
<path d="" fill="#FFFFFF" transform="translate(0,0)"/>
<path d="" fill="#FFFFFF" transform="translate(0,0)"/>
<path d="" fill="#FFFFFF" transform="translate(0,0)"/>
<path d="" fill="#FFFFFF" transform="translate(0,0)"/>
<path d="" fill="#FFFFFF" transform="translate(0,0)"/>
<path d="" fill="#FFFFFF" transform="translate(0,0)"/>
<path d="" fill="#FFFFFF" transform="translate(0,0)"/>
<path d="" fill="#FFFFFF" transform="translate(0,0)"/>
<path d="" fill="#FFFFFF" transform="translate(0,0)"/>
<path d="" fill="#FFFFFF" transform="translate(0,0)"/>
<path d="" fill="#FFFFFF" transform="translate(0,0)"/>
<path d="" fill="#FFFFFF" transform="translate(0,0)"/>
<path d="" fill="#FFFFFF" transform="translate(0,0)"/>
<path d="" fill="#FFFFFF" transform="translate(0,0)"/>
</svg>
