<svg width="982" height="216" viewBox="0 0 982 216" fill="none" xmlns="http://www.w3.org/2000/svg">
<path d="M270.179 169.477H290.404L313.352 101.243L336.3 169.477H356.525L388.613 64.8H362.748L343.69 127.218L324.34 64.8H302.364L283.014 127.218L263.956 64.8L238.091 64.6062L270.179 169.477Z" fill="#0F19A0"/>
<path d="M392.591 50.2615H419.039V27H392.591V50.2615ZM392.591 169.477H419.039V64.8H392.591V169.477Z" fill="#0F19A0"/>
<path d="M473.667 172.385C487.409 172.385 498.17 169.315 505.949 163.177C513.728 157.038 517.618 148.606 517.618 137.88C517.618 129.738 515.089 123.309 510.033 118.592C505.042 113.875 496.55 109.966 484.557 106.865C476.389 104.797 470.296 103.117 466.277 101.825C462.322 100.532 459.697 99.2723 458.4 98.0446C457.169 96.8169 456.553 95.2985 456.553 93.4892C456.553 90.4523 458.011 88.1262 460.929 86.5108C463.91 84.8954 467.832 84.2492 472.694 84.5723C483.001 85.3477 488.641 89.7415 489.613 97.7539L516.645 92.9077C515.284 83.4092 510.617 75.8815 502.643 70.3246C494.67 64.7031 484.492 61.8923 472.111 61.8923C459.405 61.8923 449.26 64.8646 441.676 70.8092C434.091 76.7539 430.299 84.7662 430.299 94.8462C430.299 102.858 432.924 109.191 438.175 113.843C443.426 118.431 452.469 122.372 465.304 125.668C472.889 127.671 478.464 129.286 482.029 130.514C485.659 131.742 487.993 133.002 489.03 134.294C490.067 135.522 490.586 137.169 490.586 139.237C490.586 142.532 489.289 145.117 486.696 146.991C484.103 148.8 480.408 149.705 475.611 149.705C469.777 149.705 464.948 148.315 461.123 145.537C457.363 142.758 454.932 138.914 453.83 134.003L426.798 138.074C428.549 148.994 433.475 157.458 441.578 163.468C449.746 169.412 460.442 172.385 473.667 172.385Z" fill="#0F19A0"/>
<path d="M572.24 172.385C582.353 172.385 591.655 169.735 600.147 164.437C608.704 159.138 614.96 151.708 618.914 142.145L592.466 134.585C588.446 143.372 581.186 147.766 570.685 147.766C563.489 147.766 557.817 145.763 553.668 141.757C549.584 137.751 547.056 132 546.084 124.505H619.789C620.891 111.84 619.595 100.823 615.9 91.4538C612.205 82.0846 606.5 74.8154 598.786 69.6462C591.072 64.4769 581.705 61.8923 570.685 61.8923C560.313 61.8923 551.14 64.2508 543.167 68.9677C535.193 73.62 528.938 80.1785 524.4 88.6431C519.862 97.1077 517.593 107.058 517.593 118.495C517.593 128.963 519.895 138.268 524.497 146.409C529.164 154.486 535.582 160.851 543.75 165.503C551.983 170.091 561.479 172.385 572.24 172.385ZM571.851 84.7662C578.204 84.7662 583.066 86.3492 586.437 89.5154C589.873 92.6815 592.077 97.8185 593.049 104.926H546.764C549.552 91.4862 557.914 84.7662 571.851 84.7662Z" fill="#0F19A0"/>
<path d="M667.221 172.385C680.964 172.385 691.724 169.315 699.503 163.177C707.282 157.038 711.172 148.606 711.172 137.88C711.172 129.738 708.644 123.309 703.587 118.592C698.596 113.875 690.104 109.966 678.111 106.865C669.943 104.797 663.85 103.117 659.831 101.825C655.877 100.532 653.251 99.2723 651.955 98.0446C650.723 96.8169 650.107 95.2985 650.107 93.4892C650.107 90.4523 651.566 88.1262 654.483 86.5108C657.465 84.8954 661.387 84.2492 666.248 84.5723C676.556 85.3477 682.195 89.7415 683.168 97.7539L710.199 92.9077C708.838 83.4092 704.171 75.8815 696.197 70.3246C688.224 64.7031 678.047 61.8923 665.665 61.8923C652.959 61.8923 642.814 64.8646 635.23 70.8092C627.645 76.7539 623.853 84.7662 623.853 94.8462C623.853 102.858 626.479 109.191 631.729 113.843C636.98 118.431 646.023 122.372 658.858 125.668C666.443 127.671 672.018 129.286 675.583 130.514C679.213 131.742 681.547 133.002 682.584 134.294C683.621 135.522 684.14 137.169 684.14 139.237C684.14 142.532 682.844 145.117 680.251 146.991C677.658 148.8 673.963 149.705 669.166 149.705C663.331 149.705 658.502 148.315 654.677 145.537C650.917 142.758 648.487 138.914 647.385 134.003L620.353 138.074C622.103 148.994 627.03 157.458 635.133 163.468C643.301 169.412 653.997 172.385 667.221 172.385Z" fill="#0F19A0"/>
<path d="M779.991 169.477V147.572C773.768 148.412 768.096 148.671 762.975 148.348C757.854 148.025 754.126 146.022 751.792 142.338C750.561 140.4 749.88 137.815 749.751 134.585C749.686 131.289 749.653 127.606 749.653 123.535V85.1538H779.991V64.8H749.653V35.7231H723.205V64.8H705.313V85.1538H723.205V125.086C723.205 131.354 723.27 136.975 723.399 141.951C723.529 146.862 724.89 151.708 727.483 156.489C730.336 161.594 734.484 165.309 739.93 167.635C745.44 169.897 751.663 171.092 758.599 171.222C765.6 171.415 772.731 170.834 779.991 169.477Z" fill="#0F19A0"/>
<path d="M830.761 172.385C840.874 172.385 850.176 169.735 858.668 164.437C867.225 159.138 873.48 151.708 877.435 142.145L850.986 134.585C846.967 143.372 839.707 147.766 829.205 147.766C822.01 147.766 816.337 145.763 812.189 141.757C808.105 137.751 805.577 132 804.604 124.505H878.31C879.412 111.84 878.115 100.823 874.42 91.4538C870.725 82.0846 865.021 74.8154 857.307 69.6462C849.592 64.4769 840.225 61.8923 829.205 61.8923C818.833 61.8923 809.661 64.2508 801.687 68.9677C793.714 73.62 787.458 80.1785 782.92 88.6431C778.383 97.1077 776.114 107.058 776.114 118.495C776.114 128.963 778.415 138.268 783.018 146.409C787.685 154.486 794.103 160.851 802.271 165.503C810.503 170.091 820 172.385 830.761 172.385ZM830.372 84.7662C836.725 84.7662 841.587 86.3492 844.957 89.5154C848.393 92.6815 850.597 97.8185 851.57 104.926H805.285C808.072 91.4862 816.435 84.7662 830.372 84.7662Z" fill="#0F19A0"/>
<path d="M881.664 216H908.307V165.697C911.743 167.829 915.535 169.477 919.684 170.64C923.897 171.803 928.468 172.385 933.394 172.385C943.053 172.385 951.513 169.962 958.773 165.115C966.033 160.269 971.673 153.678 975.692 145.343C979.776 137.008 981.818 127.606 981.818 117.138C981.818 106.477 979.744 97.0108 975.595 88.74C971.511 80.4046 965.742 73.8462 958.287 69.0646C950.832 64.2831 942.081 61.8923 932.033 61.8923C926.588 61.8923 921.596 62.6677 917.058 64.2185C912.586 65.7046 908.566 67.8369 905.001 70.6154V64.8H881.664V216ZM929.116 148.929C920.3 148.929 914.077 146.022 910.446 140.206C906.816 134.326 905.001 126.637 905.001 117.138C905.001 107.64 906.784 99.9831 910.349 94.1677C913.979 88.2877 919.911 85.3477 928.143 85.3477C934.042 85.3477 938.872 86.8015 942.632 89.7092C946.456 92.5523 949.276 96.3969 951.091 101.243C952.906 106.025 953.814 111.323 953.814 117.138C953.814 123.018 952.939 128.382 951.189 133.228C949.438 138.009 946.748 141.822 943.118 144.665C939.488 147.508 934.82 148.929 929.116 148.929Z" fill="#0F19A0"/>
<path d="M270.179 169.477H290.404L313.352 101.243L336.3 169.477H356.525L388.613 64.8H362.748L343.69 127.218L324.34 64.8H302.364L283.014 127.218L263.956 64.8L238.091 64.6062L270.179 169.477Z" fill="#0F19A0"/>
<path d="M392.591 50.2615H419.039V27H392.591V50.2615ZM392.591 169.477H419.039V64.8H392.591V169.477Z" fill="#0F19A0"/>
<path d="M473.667 172.385C487.409 172.385 498.17 169.315 505.949 163.177C513.728 157.038 517.618 148.606 517.618 137.88C517.618 129.738 515.089 123.309 510.033 118.592C505.042 113.875 496.55 109.966 484.557 106.865C476.389 104.797 470.296 103.117 466.277 101.825C462.322 100.532 459.697 99.2723 458.4 98.0446C457.169 96.8169 456.553 95.2985 456.553 93.4892C456.553 90.4523 458.011 88.1262 460.929 86.5108C463.91 84.8954 467.832 84.2492 472.694 84.5723C483.001 85.3477 488.641 89.7415 489.613 97.7539L516.645 92.9077C515.284 83.4092 510.617 75.8815 502.643 70.3246C494.67 64.7031 484.492 61.8923 472.111 61.8923C459.405 61.8923 449.26 64.8646 441.676 70.8092C434.091 76.7539 430.299 84.7662 430.299 94.8462C430.299 102.858 432.924 109.191 438.175 113.843C443.426 118.431 452.469 122.372 465.304 125.668C472.889 127.671 478.464 129.286 482.029 130.514C485.659 131.742 487.993 133.002 489.03 134.294C490.067 135.522 490.586 137.169 490.586 139.237C490.586 142.532 489.289 145.117 486.696 146.991C484.103 148.8 480.408 149.705 475.611 149.705C469.777 149.705 464.948 148.315 461.123 145.537C457.363 142.758 454.932 138.914 453.83 134.003L426.798 138.074C428.549 148.994 433.475 157.458 441.578 163.468C449.746 169.412 460.442 172.385 473.667 172.385Z" fill="#0F19A0"/>
<path d="M572.24 172.385C582.353 172.385 591.655 169.735 600.147 164.437C608.704 159.138 614.96 151.708 618.914 142.145L592.466 134.585C588.446 143.372 581.186 147.766 570.685 147.766C563.489 147.766 557.817 145.763 553.668 141.757C549.584 137.751 547.056 132 546.084 124.505H619.789C620.891 111.84 619.595 100.823 615.9 91.4538C612.205 82.0846 606.5 74.8154 598.786 69.6462C591.072 64.4769 581.705 61.8923 570.685 61.8923C560.313 61.8923 551.14 64.2508 543.167 68.9677C535.193 73.62 528.938 80.1785 524.4 88.6431C519.862 97.1077 517.593 107.058 517.593 118.495C517.593 128.963 519.895 138.268 524.497 146.409C529.164 154.486 535.582 160.851 543.75 165.503C551.983 170.091 561.479 172.385 572.24 172.385ZM571.851 84.7662C578.204 84.7662 583.066 86.3492 586.437 89.5154C589.873 92.6815 592.077 97.8185 593.049 104.926H546.764C549.552 91.4862 557.914 84.7662 571.851 84.7662Z" fill="#0F19A0"/>
<path d="M667.221 172.385C680.964 172.385 691.724 169.315 699.503 163.177C707.282 157.038 711.172 148.606 711.172 137.88C711.172 129.738 708.644 123.309 703.587 118.592C698.596 113.875 690.104 109.966 678.111 106.865C669.943 104.797 663.85 103.117 659.831 101.825C655.877 100.532 653.251 99.2723 651.955 98.0446C650.723 96.8169 650.107 95.2985 650.107 93.4892C650.107 90.4523 651.566 88.1262 654.483 86.5108C657.465 84.8954 661.387 84.2492 666.248 84.5723C676.556 85.3477 682.195 89.7415 683.168 97.7539L710.199 92.9077C708.838 83.4092 704.171 75.8815 696.197 70.3246C688.224 64.7031 678.047 61.8923 665.665 61.8923C652.959 61.8923 642.814 64.8646 635.23 70.8092C627.645 76.7539 623.853 84.7662 623.853 94.8462C623.853 102.858 626.479 109.191 631.729 113.843C636.98 118.431 646.023 122.372 658.858 125.668C666.443 127.671 672.018 129.286 675.583 130.514C679.213 131.742 681.547 133.002 682.584 134.294C683.621 135.522 684.14 137.169 684.14 139.237C684.14 142.532 682.844 145.117 680.251 146.991C677.658 148.8 673.963 149.705 669.166 149.705C663.331 149.705 658.502 148.315 654.677 145.537C650.917 142.758 648.487 138.914 647.385 134.003L620.353 138.074C622.103 148.994 627.03 157.458 635.133 163.468C643.301 169.412 653.997 172.385 667.221 172.385Z" fill="#0F19A0"/>
<path d="M779.991 169.477V147.572C773.768 148.412 768.096 148.671 762.975 148.348C757.854 148.025 754.126 146.022 751.792 142.338C750.561 140.4 749.88 137.815 749.751 134.585C749.686 131.289 749.653 127.606 749.653 123.535V85.1538H779.991V64.8H749.653V35.7231H723.205V64.8H705.313V85.1538H723.205V125.086C723.205 131.354 723.27 136.975 723.399 141.951C723.529 146.862 724.89 151.708 727.483 156.489C730.336 161.594 734.484 165.309 739.93 167.635C745.44 169.897 751.663 171.092 758.599 171.222C765.6 171.415 772.731 170.834 779.991 169.477Z" fill="#0F19A0"/>
<path d="M830.761 172.385C840.874 172.385 850.176 169.735 858.668 164.437C867.225 159.138 873.48 151.708 877.435 142.145L850.986 134.585C846.967 143.372 839.707 147.766 829.205 147.766C822.01 147.766 816.337 145.763 812.189 141.757C808.105 137.751 805.577 132 804.604 124.505H878.31C879.412 111.84 878.115 100.823 874.42 91.4538C870.725 82.0846 865.021 74.8154 857.307 69.6462C849.592 64.4769 840.225 61.8923 829.205 61.8923C818.833 61.8923 809.661 64.2508 801.687 68.9677C793.714 73.62 787.458 80.1785 782.92 88.6431C778.383 97.1077 776.114 107.058 776.114 118.495C776.114 128.963 778.415 138.268 783.018 146.409C787.685 154.486 794.103 160.851 802.271 165.503C810.503 170.091 820 172.385 830.761 172.385ZM830.372 84.7662C836.725 84.7662 841.587 86.3492 844.957 89.5154C848.393 92.6815 850.597 97.8185 851.57 104.926H805.285C808.072 91.4862 816.435 84.7662 830.372 84.7662Z" fill="#0F19A0"/>
<path d="M881.664 216H908.307V165.697C911.743 167.829 915.535 169.477 919.684 170.64C923.897 171.803 928.468 172.385 933.394 172.385C943.053 172.385 951.513 169.962 958.773 165.115C966.033 160.269 971.673 153.678 975.692 145.343C979.776 137.008 981.818 127.606 981.818 117.138C981.818 106.477 979.744 97.0108 975.595 88.74C971.511 80.4046 965.742 73.8462 958.287 69.0646C950.832 64.2831 942.081 61.8923 932.033 61.8923C926.588 61.8923 921.596 62.6677 917.058 64.2185C912.586 65.7046 908.566 67.8369 905.001 70.6154V64.8H881.664V216ZM929.116 148.929C920.3 148.929 914.077 146.022 910.446 140.206C906.816 134.326 905.001 126.637 905.001 117.138C905.001 107.64 906.784 99.9831 910.349 94.1677C913.979 88.2877 919.911 85.3477 928.143 85.3477C934.042 85.3477 938.872 86.8015 942.632 89.7092C946.456 92.5523 949.276 96.3969 951.091 101.243C952.906 106.025 953.814 111.323 953.814 117.138C953.814 123.018 952.939 128.382 951.189 133.228C949.438 138.009 946.748 141.822 943.118 144.665C939.488 147.508 934.82 148.929 929.116 148.929Z" fill="#0F19A0"/>
<path d="M270.179 169.477H290.404L313.352 101.243L336.3 169.477H356.525L388.613 64.8H362.748L343.69 127.218L324.34 64.8H302.364L283.014 127.218L263.956 64.8L238.091 64.6062L270.179 169.477Z" fill="#341131"/>
<path d="M392.591 50.2615H419.039V27H392.591V50.2615ZM392.591 169.477H419.039V64.8H392.591V169.477Z" fill="#341131"/>
<path d="M473.667 172.385C487.409 172.385 498.17 169.315 505.949 163.177C513.728 157.038 517.618 148.606 517.618 137.88C517.618 129.738 515.089 123.309 510.033 118.592C505.042 113.875 496.55 109.966 484.557 106.865C476.389 104.797 470.296 103.117 466.277 101.825C462.322 100.532 459.697 99.2723 458.4 98.0446C457.169 96.8169 456.553 95.2985 456.553 93.4892C456.553 90.4523 458.011 88.1262 460.929 86.5108C463.91 84.8954 467.832 84.2492 472.694 84.5723C483.001 85.3477 488.641 89.7415 489.613 97.7539L516.645 92.9077C515.284 83.4092 510.617 75.8815 502.643 70.3246C494.67 64.7031 484.492 61.8923 472.111 61.8923C459.405 61.8923 449.26 64.8646 441.676 70.8092C434.091 76.7538 430.299 84.7662 430.299 94.8462C430.299 102.858 432.924 109.191 438.175 113.843C443.426 118.431 452.469 122.372 465.304 125.668C472.889 127.671 478.464 129.286 482.029 130.514C485.659 131.742 487.993 133.002 489.03 134.294C490.067 135.522 490.586 137.169 490.586 139.237C490.586 142.532 489.289 145.117 486.696 146.991C484.103 148.8 480.408 149.705 475.611 149.705C469.777 149.705 464.948 148.315 461.123 145.537C457.363 142.758 454.932 138.914 453.83 134.003L426.798 138.074C428.549 148.994 433.475 157.458 441.578 163.468C449.746 169.412 460.442 172.385 473.667 172.385Z" fill="#341131"/>
<path d="M572.24 172.385C582.353 172.385 591.655 169.735 600.147 164.437C608.704 159.138 614.96 151.708 618.914 142.145L592.466 134.585C588.446 143.372 581.186 147.766 570.685 147.766C563.489 147.766 557.817 145.763 553.668 141.757C549.584 137.751 547.056 132 546.084 124.505H619.789C620.891 111.84 619.595 100.823 615.9 91.4538C612.205 82.0846 606.5 74.8154 598.786 69.6462C591.072 64.4769 581.705 61.8923 570.685 61.8923C560.313 61.8923 551.14 64.2508 543.167 68.9677C535.193 73.62 528.938 80.1785 524.4 88.6431C519.862 97.1077 517.593 107.058 517.593 118.495C517.593 128.963 519.895 138.268 524.497 146.409C529.164 154.486 535.582 160.851 543.75 165.503C551.983 170.091 561.479 172.385 572.24 172.385ZM571.851 84.7662C578.204 84.7662 583.066 86.3492 586.437 89.5154C589.873 92.6815 592.077 97.8185 593.049 104.926H546.764C549.552 91.4862 557.914 84.7662 571.851 84.7662Z" fill="#341131"/>
<path d="M667.221 172.385C680.964 172.385 691.725 169.315 699.503 163.177C707.282 157.038 711.172 148.606 711.172 137.88C711.172 129.738 708.644 123.309 703.587 118.592C698.596 113.875 690.104 109.966 678.111 106.865C669.943 104.797 663.85 103.117 659.831 101.825C655.877 100.532 653.251 99.2723 651.955 98.0446C650.723 96.8169 650.107 95.2985 650.107 93.4892C650.107 90.4523 651.566 88.1262 654.483 86.5108C657.465 84.8954 661.387 84.2492 666.248 84.5723C676.556 85.3477 682.195 89.7415 683.168 97.7539L710.199 92.9077C708.838 83.4092 704.171 75.8815 696.197 70.3246C688.224 64.7031 678.047 61.8923 665.665 61.8923C652.959 61.8923 642.814 64.8646 635.23 70.8092C627.645 76.7538 623.853 84.7662 623.853 94.8462C623.853 102.858 626.479 109.191 631.729 113.843C636.98 118.431 646.023 122.372 658.858 125.668C666.443 127.671 672.018 129.286 675.583 130.514C679.213 131.742 681.547 133.002 682.584 134.294C683.621 135.522 684.14 137.169 684.14 139.237C684.14 142.532 682.844 145.117 680.251 146.991C677.658 148.8 673.963 149.705 669.166 149.705C663.331 149.705 658.502 148.315 654.677 145.537C650.917 142.758 648.487 138.914 647.385 134.003L620.353 138.074C622.103 148.994 627.03 157.458 635.133 163.468C643.301 169.412 653.997 172.385 667.221 172.385Z" fill="#341131"/>
<path d="M779.991 169.477V147.572C773.768 148.412 768.096 148.671 762.975 148.348C757.854 148.025 754.126 146.022 751.792 142.338C750.561 140.4 749.88 137.815 749.751 134.585C749.686 131.289 749.653 127.606 749.653 123.535V85.1538H779.991V64.8H749.653V35.7231H723.205V64.8H705.313V85.1538H723.205V125.086C723.205 131.354 723.27 136.975 723.399 141.951C723.529 146.862 724.89 151.708 727.483 156.489C730.336 161.594 734.484 165.309 739.93 167.635C745.44 169.897 751.663 171.092 758.599 171.222C765.6 171.415 772.731 170.834 779.991 169.477Z" fill="#341131"/>
<path d="M830.761 172.385C840.873 172.385 850.176 169.735 858.668 164.437C867.225 159.138 873.48 151.708 877.435 142.145L850.986 134.585C846.967 143.372 839.707 147.766 829.205 147.766C822.01 147.766 816.337 145.763 812.189 141.757C808.105 137.751 805.577 132 804.604 124.505H878.31C879.412 111.84 878.115 100.823 874.42 91.4538C870.725 82.0846 865.021 74.8154 857.307 69.6462C849.592 64.4769 840.225 61.8923 829.205 61.8923C818.833 61.8923 809.661 64.2508 801.687 68.9677C793.714 73.62 787.458 80.1785 782.92 88.6431C778.383 97.1077 776.114 107.058 776.114 118.495C776.114 128.963 778.415 138.268 783.018 146.409C787.685 154.486 794.103 160.851 802.271 165.503C810.503 170.091 820 172.385 830.761 172.385ZM830.372 84.7662C836.725 84.7662 841.587 86.3492 844.957 89.5154C848.393 92.6815 850.597 97.8185 851.57 104.926H805.285C808.072 91.4862 816.435 84.7662 830.372 84.7662Z" fill="#341131"/>
<path d="M881.664 216H908.307V165.697C911.743 167.829 915.535 169.477 919.684 170.64C923.897 171.803 928.468 172.385 933.394 172.385C943.053 172.385 951.513 169.962 958.773 165.115C966.033 160.269 971.673 153.678 975.692 145.343C979.776 137.008 981.818 127.606 981.818 117.138C981.818 106.477 979.744 97.0108 975.595 88.74C971.511 80.4046 965.742 73.8462 958.287 69.0646C950.832 64.2831 942.081 61.8923 932.033 61.8923C926.588 61.8923 921.596 62.6677 917.058 64.2185C912.586 65.7046 908.566 67.8369 905.001 70.6154V64.8H881.664V216ZM929.116 148.929C920.3 148.929 914.077 146.022 910.446 140.206C906.816 134.326 905.001 126.637 905.001 117.138C905.001 107.64 906.784 99.9831 910.349 94.1677C913.979 88.2877 919.911 85.3477 928.143 85.3477C934.042 85.3477 938.872 86.8015 942.632 89.7092C946.456 92.5523 949.276 96.3969 951.091 101.243C952.906 106.025 953.814 111.323 953.814 117.138C953.814 123.018 952.939 128.382 951.189 133.228C949.438 138.009 946.748 141.822 943.118 144.665C939.488 147.508 934.82 148.929 929.116 148.929Z" fill="#341131"/>
<path d="M0 64C0 28.6538 28.6538 0 64 0H147.091C182.437 0 211.091 28.6538 211.091 64V144.452C211.091 179.798 182.437 208.452 147.091 208.452H64C28.6538 208.452 0 179.799 0 144.452V64Z" fill="#00B4D8"/>
<path d="M79.626 150.787L64.11 57.9165H36.0336L53.0272 150.787H79.626Z" fill="#00B4D8"/>
<path d="M129.852 150.787L145.368 57.9165H173.444L156.451 150.787H129.852Z" fill="#00B4D8"/>
<path d="M156.387 150.787L119.119 57.9165H90.0505L129.554 150.787H156.387Z" fill="#00B4D8"/>
<path d="M54.0391 150.787L90.7742 57.9165H119.428L80.4884 150.787H54.0391Z" fill="#00B4D8"/>
<path d="M79.626 150.787L64.11 57.9165H36.0336L53.0272 150.787H79.626Z" fill="#FFE6C8"/>
<path d="M129.852 150.787L145.368 57.9165H173.444L156.451 150.787H129.852Z" fill="#FFE6C8"/>
<path d="M156.387 150.787L119.119 57.9165H90.0505L129.554 150.787H156.387Z" fill="white"/>
<path d="M54.0391 150.787L90.7742 57.9165H119.428L80.4884 150.787H54.0391Z" fill="white"/>
<path d="M80.5923 150.871L65.0763 58.0005H36.9999L53.9935 150.871H80.5923Z" fill="white"/>
<path d="M130.818 150.871L146.334 58.0005H174.411L157.417 150.871H130.818Z" fill="white"/>
<path d="M157.353 150.871L120.085 58.0005H91.0168L130.52 150.871H157.353Z" fill="white"/>
<path d="M55.0054 150.871L91.7405 58.0005H120.394L81.4547 150.871H55.0054Z" fill="white"/>
</svg>
